<svg xmlns="http://www.w3.org/2000/svg" data-name="Capa 1" viewBox="0 0 425.2 425.2"><path d="M339.79 162.47c2.34-2.96 3.22-6.9 2.53-11.38-1.63-10.56-11.89-9.89-17.4-9.53-3.32.22-9.94.96-19.68 2.06-12.41 1.39-28.64 3.22-48.09 5.09-37.03 3.46-109.89 1.97-132.19 1.05-13.25 0-18.13 3.85-19.47 14.5-.93 6.98-17.21 82.32-22.01 105.46-1.67 7.43-1.33 13.74 5.99 14.09 12.99-1.8 48.68-13.69 81.28-23.75 17.24-5.83 19.54-7.83 26.52-15.33 9.07-11.21 23.73-12.36 36.75-2.18 12.48 10.08 29.58-4.24 24.13-18.03-.78-1.86-1.73-4.21-2.61-6.38-5.29-13.11-9.33-22.66-13.28-26.17-3.46-5.46-38.06.8-53.89 2.27-16.83 1.48-20.54 2.55-28.37 8.13-7.15 4.97-7.6 7.65-9.67 18.67-2.01 14.78-7.25 24.66-24.32 21.43-9.28-1.69-9.97-2.33-10.55-5.98-.76-5.22 9.82-17.05 13.6-23.66 2.62-4.06 4.83-7.69 6.45-10.35 9.27-15.24 11.2-18.41 30.41-19.94 22.95-1.83 122.52-10.63 159.67-13.86 6.61-.56 11.39-2.64 14.19-6.2Zm-49.43 2.06c-37.31 3.28-106.76 9.38-125 10.83-22.87 1.82-26.45 7.69-36 23.38-3.09 5.19-8.65 13.92-12.38 19.09-5.61 8.03-9.58 13.71-8.63 19.79 1.47 9.21 7.72 10.36 16.36 11.94 21.21 3.81 30.37-8.41 32.78-27.62 1.93-10.13 1.97-10.32 6.7-13.71 6.23-4.45 7.94-5.33 24.82-6.82 11.87-.96 43.07-6.22 48.27-4.19l.2.13c2.75 2.32 7.51 13.88 11.64 24.13.85 2.1 1.65 4.08 2.38 5.83 1.48 3.5-.6 7.6-3.3 9.68-1.46 1.11-5.33 3.33-9.8-.13-15.08-11.69-33.03-11.26-44.67 1.08-7.67 8.19-7.76 9.41-25.27 15.28-31.55 9.99-68.47 21.42-78.68 23.41.04-1.77.24-3.13.71-5.45 5.23-24.87 22.55-105.86 22.1-106.03.7-5.56 1.5-8.23 11.76-8.23 22.51.96 96.07 2.41 133.46-1.05 26.64-2.49 47.31-5.22 67.53-7.13 8.3-.59 9.41.66 9.84 3.43.92 6.76-3.13 8.54-10.22 9.33-3.52.3-16.91 1.47-34.64 3.03Z" style="fill:#fff"/></svg>