<?xml version="1.0" encoding="UTF-8"?>
<svg version="1.1" viewBox="0 0 2048 1146" width="300" height="168" xmlns="http://www.w3.org/2000/svg">
<path transform="translate(606,138)" d="m0 0h11l13 3 15 8 13 12 13 15 7 8 11 8 20 12 17 11 16 10 19 12 21 13 19 12 21 13 48 30 19 12 22 14 24 15 26 16 60 38 20 12 27 13 28 12 28 13 25 12 28 15 19 12 12 8 19 14 13 10 15 12 20 14 21 13 25 12 16 5 11 2h19l12-3 14-7 10-9 10-10 9-14 5-12 4-17 2-19 2-29 4-26 5-21 8-19 5-10 11-14 11-9 16-8 17-5 56-11 80-14 87-15 68-11 9-1h28l12 4 9 7 8 9 6 12 2 8v10l-3 11-8 15-10 14-15 16-10 10-8 10-7 11-8 16-13 25-9 16-8 16-3 9 3 1 7-6 10-13 13-18 8-10 13-16 9-10 10-9 10-5h10l16 4 16 8 18 11 31 21 7 6 8 11 4 10 1 4v12l-4 12-7 10-8 8-18 13-27 18-16 11-21 14-17 11-18 11-23 15-50 32-22 14-24 15-15 9-23 13-25 12-27 8-34 6-68 7h-45l-43-5-22-3-10-3-17-2-29-8-24-8-21-8-23-11-2-3-3 1-16-7-30-15-19-10-25-13-23-13-25-14-20-12-21-13-27-18-16-11-13-8-16-8-10-4-6 1-18 20-10 7-8 4-4 1h-17l-13-4-20-9-16-9-11-10-7-12-4-14-5-25-4-10-12-11-19-14-36-28-16-12-21-16-18-13-21-16-38-28-18-13-17-12-15-10-12-6-3-1h-9l-11 4-12 7-12 10-11 8-10 8-13 11-14 11-13 12-8 7-16 15-11 11-2 3v9l5 22 1 7v19l-5 12-7 12-10 13-11 14-9 10-7 8-14 17-8 10-9 10-9 11-12 14-10 9-8 4-7 2h-17l-13-4-14-6h-4l-8 17-7 22-6 32-2 16-1 16v50l2 33 3 17 5 16 15 34 8 24 2 10v17l-3 10-6 10-8 9-10 7-12 4-6 1h-11l-15-3-16-8-13-8-14-10-12-9-21-16-15-10-19-13-21-16-12-11-10-10-7-10-7-14-1-4v-17l4-13 8-11 7-7 9-7 7-8 6-13 5-22 5-32 7-35 8-28 8-21 12-26 10-18 16-26 15-23 16-24 12-16 8-11 14-19 8-10 14-18 13-16 14-15 12-13 11-12 11-11 8-7 17-16 15-14 13-12 8-7 28-24 12-11 8-7 10-9 14-11 11-10 8-7 10-9 11-9 14-12 10-9 12-11 13-11 16-10 9-4zm5 22-11 4-14 10-17 16-11 10-11 9-10 8-13 11-11 9-11 10-10 8-10 9-11 9-15 14-8 7-14 12-11 10-8 7-16 15-12 11-10 9-16 14v2l-4 2-12 13-10 11-9 11-13 15-10 13-14 18-10 14-11 15-13 19-10 14-20 30-13 22-9 16-11 21-9 23-6 20-7 35-9 49-6 21-8 14-8 10-13 12-8 9-3 7v8l7 14 9 10 8 7 9 8 16 12 17 12 19 13 18 14 16 12 14 10 13 8 13 5 4 1h10l11-4 6-5 6-9 1-4v-12l-2-12-7-19-11-24-7-17-4-17-4-38-2-28v-11l2-29 5-39 6-28 7-21 8-15 7-9 9-6h10l13 5 17 7h9l8-5 13-13 9-11 12-14 11-14 13-15 22-26 9-12 6-9 4-11v-14l-5-24-1-6v-9l7-14 12-13 15-15 8-7 6-7 2-5-2-1-9 6-15 14-22 22-6 10-3 9v16l4 16 3 13v7l-5 10-10 14-8 10-12 14-11 13-11 14-10 11-9 11-8 9-8 10-6 7-4 2-9-1-24-10-3-1h-12l-12 6-8 8-8 14-6 15-5 17-6 31-3 26-2 36v14l3 53 3 19 6 18 14 31 9 24 1 4v15l-6 9-10 5-8 1-13-3-14-8-14-10-21-16-18-13-19-13-18-13-22-18-11-11-6-9-1-3v-11l7-9 8-7 10-10 9-13 5-12 4-15 5-27 7-39 7-30 8-22 12-25 10-19 15-24 12-19 9-13 10-15 10-14 14-19 12-16 14-18 11-14 10-11 9-11 15-16 11-12 8-8 8-7 7-7 8-7 12-11 8-7 20-18 8-7 13-12 11-9 12-11 11-9 15-13 26-22 14-12 11-10 10-8 14-13 14-11 10-6 8-1 10 5 10 9 8 8 9 11 11 10 79 50 23 14 14 9 24 15 18 11 38 24 24 15 25 16 26 16 48 30 19 12 16 10 16 9 29 13 21 9 24 11 44 22 22 13 21 14 15 11 16 13 12 9 15 11 20 13 27 14 19 7 22 5 7 1h17l14-2 18-6 11-6 11-9 11-10 8-10 11-18 6-16 4-17 4-38 4-33 4-20 6-16 7-11 8-9 10-6 16-5 32-7 66-12 89-15 60-10 52-9h17l9 6 5 8v8l-6 11-10 13-12 13-15 16-12 17-13 24-9 17-12 22-9 19-3 9-1 5v14l3 8 5 7 8 6 3 1h12l10-4 11-7 16-16 10-13 16-23 11-15 9-10 4-1 13 4 18 10 23 15 13 9 4 2 4 8v9l-4 6-16 12-19 13-18 12-20 14-22 15-9 6-10 5-6 7-1 3 9-3 14-10 18-11 42-28 26-17 11-8 8-8 4-8v-11l-5-8-7-7-37-24-16-9-12-5h-10l-11 9-8 10-13 18-20 28-10 11-12 9-8 3h-12l-5-3-4-7-1-2v-20l4-11 13-26 12-22 12-23 9-14 8-10 24-26 11-14 6-13 1-3v-9l-5-9-7-6-11-4-18 1-34 5-53 9-55 9-108 20-44 8-19 5-13 7-9 9-8 14-5 14-4 18-6 53-5 33-3 12-8 18-7 10-11 13-8 8-13 9-13 6-12 3-9 1h-18l-19-3-21-7-19-9-20-12-14-10-19-14-18-14-17-12-13-9-21-13-21-12-34-17-72-32-18-10-17-11-26-16-22-14-26-16-25-16-26-16-38-24-26-16-19-12-26-16-41-26-42-26-14-9-9-7-11-11-8-10-9-10-10-7-13-4zm4 131-13 4-14 8-15 12-1 6 6-2 17-12 14-7 17-4 11 1 12 4 10 5 23 16 18 13 38 28 16 12 14 10 13 10 19 14 13 10 12 9 18 14 16 12 17 13 10 8 9 8 5 8 5 15 5 25 5 12 8 8 16 9 17 7 8 2h9l10-6 10-9 11-13 4-5 3-2 10 1 20 7 16 8 12 7 25 17 21 14 14 9 29 17 23 13 44 24 23 12 23 11 22 11 5 3h5v-5l-3-2-6-1-10-6-16-8-31-16-19-10-30-16-24-14-27-16-20-13-24-16-14-10-14-9-19-10-18-6-13-3-9 2-8 6-11 14-7 8-9 6h-8l-15-6-18-10-9-8-4-8-7-32-4-12-6-9-11-10-17-13-18-14-13-10-21-16-13-10-16-12-21-16-19-14-18-14-14-10-36-26-21-14-12-6-8-2zm-56 2 2 9 2 1 1-4-4-6zm-90 21-12 9-16 15-10 9-8 7-14 13-11 9-33 33-7 8-11 13-9 11-12 14-12 16-13 17-10 14-13 18-19 28-14 22-12 21-12 22-11 26-6 20-7 34-6 35-5 24-6 18-7 13-10 13-12 12-7 5 6 7 8 7 16 13 17 12 22 15 19 14 18 14 13 10 11 7 6 3h3l1-3-4-15-15-36-8-22-4-17-3-25-2-31v-44l3-31 4-28 8-32 8-21 7-14 9-12 7-7 12-7 12-3h13l11 2 12 5 6 3 4-2 20-25 18-20 11-14 11-13 9-10 10-12 3-7v-11l-6-26v-12l3-12 7-14 8-11 9-10 8-9 8-7 10-10v-2l-8-7-8-15-7-14zm24 10 2 6 7 13 5-2-2-6-6-7zm119-135-14 12-9 9-11 9-12 11-14 11-7 7-8 6 2 4 16 12 9 10 6 8 5-1 14-9 10-5 16-4h26l16 4 16 8 20 14 36 26 19 14 24 18 19 14 18 14 19 14 18 14 13 10 12 9 14 11 17 13 11 9 7 7 8 16 5 18 4 21 4 7 17 8 8 2 5-4 9-11 9-10 10-6 8-2 15 1 16 3 19 7 21 11 32 22 18 12 22 14 15 9 21 12 18 10 24 13 32 17 29 15 16 8 1 4-3 8 1 3 4-10 6 1 19 8 22 8 24 7 14 3 15 4 24 3 18 3 13 1 46 1 35-1 22-2 15-3 29-4 26-8 17-8 24-14 24-15 42-26 23-15 16-10 26-17 8-6 17-12 63-42 11-7 7-5-1-3-14-8-19-12-8-5-5-1-4 5-8 11-8 12-13 18-12 14-10 9-14 9-10 5-11 3h-15l-12-4-9-7-8-9-7-14-1-4v-22l4-14 7-16 10-20 12-22 15-28 10-15 11-13 11-12 12-12 6-9v-2l-42 6-82 13-103 18-64 12-18 5-9 5-6 7-5 11-4 15-3 17-4 44-5 32-7 21-9 16-14 19-12 13-11 9-14 9-16 7-20 5-6 1h-25l-16-3-15-4-24-10-16-8-17-10-19-13-12-9-42-32-17-11-20-12-24-13-29-14-30-13-42-19-25-15-22-14-24-15-19-12-26-16-19-12-88-55-21-13-40-25-38-24-26-16-17-11-12-9-8-8-11-14-7-9zm1202 394 1 3 2-1zm-1 24m-4 2m-1 1m-7 5m-490 52m-21 28-2 4 3-2zm-3 4 1 2z" fill="#FDFDFD"/>
<path transform="translate(611,166)" d="m0 0 8 1 11 7 15 15 9 11 10 9 79 50 23 14 14 9 24 15 18 11 38 24 24 15 25 16 26 16 48 30 19 12 16 10 16 9 29 13 21 9 24 11 44 22 22 13 21 14 15 11 16 13 12 9 15 11 20 13 27 14 19 7 22 5 7 1h17l14-2 18-6 11-6 11-9 10-9 8-10 11-18 6-16 4-17 4-38 4-33 4-20 6-16 7-11 9-10 10-6 16-5 32-7 66-12 89-15 60-10 52-9h17l9 6 6 9v8l-6 11-10 13-12 13-15 16-12 17-13 24-9 17-12 22-9 19-3 9-1 5v14l3 8 4 5v2l4 2 4 3 3 1h12l10-4 11-7 15-15 10-13 16-23 11-15 9-10 5-2 13 4 18 10 23 15 13 9 5 5 4 6v9l-5 7-16 12-19 13-18 12-30 21-7 3-14 9-4 2h-3l-5-14-3-4 17-12 63-42 11-7 6-4v-2l-14-8-19-12-8-5-5-1-11 15-8 12-13 18-12 14-11 10-14 9-10 5-11 3h-15l-12-4-9-7-7-7-8-14-2-7v-22l4-14 7-16 10-20 12-22 15-28 10-15 11-13 11-12 12-12 6-9 1-2-8 2-66 10-67 11-97 17-53 10-18 5-9 5-5 6-5 11-4 15-3 17-4 44-5 32-7 21-9 16-14 19-12 13-13 11-15 9-17 7-23 5h-25l-16-3-15-4-24-10-16-8-17-10-19-13-12-9-42-32-17-11-20-12-24-13-29-14-30-13-42-19-25-15-22-14-24-15-19-12-26-16-19-12-88-55-21-13-40-25-38-24-26-16-17-11-12-9-9-9-11-14-6-8-6-1-14 12-9 9-11 9-12 11-14 11-7 7-16 11-13 1-10 3-10 6-7 6-8 10-4 10-1 9-7 10-12 9-16 15-10 9-8 7-14 13-11 9-32 32-7 8-11 13-9 11-12 14-12 16-13 17-10 14-13 18-19 28-14 22-12 21-12 22-11 26-6 20-7 34-6 35-5 24-6 18-7 13-10 13-13 13-6 4 5 6 8 7 16 13 17 12 22 15 19 14 18 14 13 10 11 7 9 4-2-12-6-16-13-31-8-24-4-24-3-42v-44l3-31 4-28 8-32 8-21 7-14 9-12 8-8 12-7 12-3h13l11 2 12 5 6 3 4-2 14-18 11-13 12-13 11-14 11-13 9-10 10-12 3-7v-11l-6-26v-12l3-12 7-14 8-11 18-20 8-7 3-3 7-4 4-3 9 3 14 2-6 7-5 5-16 15-21 21-6 10-3 9v16l4 16 3 13v7l-5 10-10 14-8 10-12 14-11 13-11 14-10 11-9 11-8 9-8 10-7 8-4 2-9-1-24-10-3-1h-12l-12 6-7 7-8 14-6 15-5 17-6 31-3 26-2 36v14l3 53 3 19 6 18 14 31 9 24 1 4v15l-6 9-8 5-11 2-13-3-14-8-14-10-21-16-18-13-19-13-18-13-22-18-12-12-6-9-1-3v-11l7-9 10-9 8-8 9-13 5-12 4-15 5-27 7-39 7-30 8-22 12-25 10-19 15-24 12-19 9-13 10-15 10-14 14-19 12-16 14-18 11-14 10-11 9-11 15-16 11-12 9-9 8-7 7-7 8-7 12-11 8-7 20-18 8-7 13-12 11-9 12-11 11-9 15-13 26-22 14-12 11-10 10-8 14-13 14-11 10-6z" fill="#FDFDFD"/>
<path transform="translate(1815,576)" d="m0 0 4 2 4 9 1 6 14-7 10-7 2 1-13 9-9 5-8 5-5 7 8-3 8-6 2 1 1 6 9 10-2 4-16 10-15 10-50 32-22 14-24 15-15 9-23 13-25 12-27 8-34 6-68 7h-45l-43-5-22-3-10-3-17-2-29-8-24-8-21-8-23-11-2-3h-4l8-15v-3l-32-16-1-2 6 2 30 15 5 3 5 1-2-6-7-1 8-20h4l1 4-2 7 3-7 6 1 19 8 22 8 24 7 14 3 15 4 24 3 18 3 13 1 46 1 35-1 22-2 15-3 29-4 26-8 17-8 24-14 24-15 42-26 23-15 16-10 26-17zm-1 7 1 3 2-1zm-1 24m-4 2m-1 1m-7 5m-490 52m-21 28-2 4 3-2zm-3 4 1 2z" fill="#C4BCBD"/>
<path transform="translate(615,268)" d="m0 0h26l16 4 16 8 20 14 36 26 19 14 24 18 19 14 18 14 19 14 18 14 13 10 12 9 14 11 17 13 11 9 8 8 8 16 5 18 4 21 3 6 17 8 8 2 5-5 10-11 7-8 9-6 10-3 15 1 16 3 19 7 21 11 32 22 18 12 22 14 15 9 21 12 18 10 24 13 32 17 29 15 14 7-3 10-4 10-4 1-8-5-16-8-31-16-19-10-30-16-24-14-27-16-20-13-24-16-14-10-14-9-19-10-18-6-13-3-9 2-7 5-11 14-8 9-9 6h-8l-15-6-18-10-10-9-4-8-7-32-4-12-6-9-10-9-17-13-18-14-13-10-21-16-13-10-16-12-21-16-19-14-18-14-14-10-36-26-21-14-12-6-8-2h-27l-13 4-14 8-10 8-5 2-2-15-2-6 4-6 16-10 10-5z" fill="#FDFDFD"/>
<path transform="translate(535,255)" d="m0 0 4 2 16 12 7 7 8 11 3 2-3 5 3 9 1 12-2 6 4-1-7 11-9 12-7 6-26 13-9 8h-2l2-7-5 1 6-7-13-2-9-3-8 6-2-1 6-7-4-2-6-7-9-17-5-11 6-8 2-13 6-10 9-10 10-7 9-4 16-2 5-2zm24 38 2 9 2 1 1-4-4-6zm-66 31 2 6 7 13 5-2-2-6-6-7z" fill="#C4BCBD"/>
<path transform="translate(610,389)" d="m0 0 4 2-3 5-11 13-4 4 2 5 7 7 8 10 2 5-4 1-8-5-11-12-7-5-2-3-2 5-1 16-2 2h-4l-2-10v-34l3-5h3l1 2 1 19h4l7-3 11-12 4-5z" fill="#FCFCFC"/>
<path transform="translate(575,390)" d="m0 0h3l1 2 2 23 1 4-1 2-1 16-2 2h-4l-2-10v-34z" fill="#FBFBFB"/>
<path transform="translate(1301,684)" d="m0 0" fill="#C4BCBD"/>
</svg>
