<svg xmlns="http://www.w3.org/2000/svg" id="uuid-1b6fc0f9-7af8-4412-8f57-9c6f3020c5ec" data-name="Capa 1" viewBox="0 0 191.65 119.83"><defs><style>.uuid-f5be6253-8d84-4937-9234-2bfde9a34774{fill:#444}.uuid-4856beeb-44d3-43d9-a6c3-3d353ae8e49a{fill:#e6e6e6}.uuid-bfd21b8e-e4d0-4182-aaa7-7aba89c9c3b5{fill:#c6c6c6}.uuid-93c8b308-abb1-44cb-8d39-7552c1302d85{fill:#fafafa}.uuid-34a998c2-7300-4f8e-9804-239b63194807{fill:red}.uuid-0b77231a-daf1-4e23-9240-f6ab09747622{fill:#ededed}</style></defs><path d="M80.55 106.23h-.06l-36.6-.06c-1.44-.05-15.17-.14-21.26-.14-4.45.07-8.72-2.23-11.1-6.02-.62-1.13-3.43-6.77-.42-12.03 1.94-3.58 5.52-6.13 9.56-6.79 1.34-.21 2.69-.29 4.04-.26 1.59.02 3.18-.11 4.75-.38 1.8-.51 3.67-1.17 5.48-1.94 18.49-9 38.56-18.79 39.3-19.2l.35-.17c.37-.2.52-.28.84-1.38.16-.57-.02-1.18-.46-1.58l-5.85-5.55c-1.95-1.53-3.34-3.7-3.91-6.11-.53-3.4.94-6.76 3.71-8.66l.08-.06c1.44-1.02 22.03-16.12 32.94-24.12 2.52-1.81 5.84-2.14 8.66-.85 2.26.91 4.02 2.9 4.65 5.3l1.91 7.97c.55 1.82.43 3.84-.36 5.63-.76 2.02-3.88 4.02-4.24 4.25l-.16.08-7 2.8s-.8.4-.63 1.96c.13.95.86 1.71 1.82 1.87l17.08 1.57c.34-.13.83-.78 1.13-1.4-.08-.83-.36-3.54-.52-5.18-.23-2.93 1.99-5.31 2.44-5.76 1.27-1.33 2.89-2.31 4.69-2.81 3.07-.86 6.48 1.38 6.62 1.48 4.42 2.79 38.82 24.61 40 25.62 3.05 2.82 3.95 7.22 2.26 10.97-3.6 6.98-9.95 5.93-10.01 5.92l-20.39-2.79c-.74-.16-1.44 0-1.99.4-.29.33-.46.74-.47 1.18l.33 3.61c.25 2.13-.31 4.25-1.59 5.97-1.51 1.98-3.88 3.14-6.37 3.1-.97.03-46.09 2.77-46.42 2.8-.58.02-1.1.23-1.5.59-.25.21-.35.49-.29.76.14.81 1.25 7.87 1.36 8.67v.13c.04 3.36-2 5.9-3.72 7.44-3.18 2.98-7.68 3.16-8.7 3.16Zm-36.47-2.05 36.4.05c.76.01 4.71-.09 7.42-2.63 1.43-1.29 3.11-3.34 3.08-5.9-.08-.64-1.18-7.6-1.33-8.5-.2-.97.16-2 .95-2.64.72-.65 1.69-1.04 2.7-1.08.36-.03 46-2.8 46.53-2.8h.08c1.83 0 3.57-.86 4.68-2.31.95-1.28 1.38-2.86 1.21-4.45h-.01l-.35-3.8.46-.04h-.46c0-1.01.38-1.96 1.08-2.69l.1-.09c1.03-.81 2.35-1.12 3.63-.84l20.37 2.79c.09.02 5.01.73 7.88-4.82 1.31-2.92.6-6.4-1.79-8.61-1.21-.97-32.46-20.83-39.75-25.44-.74-.49-3.18-1.74-5-1.23-1.45.4-2.76 1.19-3.8 2.28-.22.22-2.04 2.1-1.88 4.18.25 2.44.55 5.41.55 5.53v.2l-.08.18c-.18.44-1.18 2.65-2.92 2.86s-.15 0-.15 0l-17.34-1.59c-1.91-.32-3.31-1.77-3.55-3.61-.29-2.63 1.13-3.82 1.92-4.08l6.86-2.75c1.12-.72 2.97-2.2 3.37-3.26.62-1.41.71-2.94.28-4.36l-1.92-8.01c-.47-1.77-1.78-3.26-3.5-3.96-2.21-1.01-4.76-.76-6.69.63s-8.25 6.05-16.5 12.1c-4.13 3.03-8.26 6.05-11.36 8.32-3.13 2.29-4.53 3.32-5.25 3.73l.04.07c-2.14 1.46-3.27 4.06-2.88 6.62.45 1.88 1.56 3.64 3.14 4.89s6 5.69 6 5.69c.99.9 1.39 2.28 1.03 3.59-.48 1.64-.94 2.12-1.79 2.58l-.38.19c-.71.41-27.8 13.6-39.41 19.25-1.93.83-3.89 1.51-5.87 2.06-1.79.32-3.52.46-5.23.44-1.23-.03-2.47.05-3.69.24-3.42.56-6.46 2.73-8.12 5.79-2.49 4.35-.11 9.13.4 10.04 1.95 3.1 5.46 5.03 9.18 5.03h.18c.28 0 18.78.04 21.47.17v-.02Z" style="fill:#a0a0a0" id="uuid-41a0def7-9016-46ac-bf86-2ad33390656e" data-name="trazado"/><g id="uuid-27151475-51b2-4196-ad85-044ddcf113e7" data-name="PUNTOS INTERMEDIOS Y SEMAFORO"><path class="uuid-4856beeb-44d3-43d9-a6c3-3d353ae8e49a" transform="rotate(-6.27 129.18155107 80.50927276)" d="M128.92 74.76h.73v11.53h-.73z"/><path class="uuid-34a998c2-7300-4f8e-9804-239b63194807" d="M134.91 85.53h-10.14l-.03.03v8.76h10.17v-8.79Z"/><path class="uuid-0b77231a-daf1-4e23-9240-f6ab09747622" d="M126.05 91.04h1.17v-2.35h-1.17v-.83h3.24v.83h-1.18v2.35h1.18v.83h-3.24v-.83ZM130.48 91.72c-.21-.1-.38-.25-.49-.43-.11-.19-.17-.41-.17-.67v-.51h.9v.43c0 .16.05.28.14.37.09.09.22.13.38.13h1.03c.15 0 .26-.03.34-.1.08-.06.12-.16.12-.29 0-.12-.04-.21-.12-.28-.08-.06-.19-.09-.34-.09h-1.11v-.83h1.07c.14 0 .26-.03.34-.1.08-.06.12-.16.12-.29 0-.12-.04-.21-.12-.28-.08-.06-.19-.09-.34-.09h-1c-.16 0-.29.04-.38.13-.09.09-.14.21-.14.37v.26h-.89v-.34c0-.26.06-.48.17-.67s.27-.33.49-.43c.21-.1.47-.15.77-.15h1.01c.27 0 .5.04.7.13s.35.21.46.38c.11.17.16.36.16.59 0 .2-.04.38-.14.53-.09.15-.23.27-.42.37.21.1.37.22.46.37.09.14.14.32.14.54s-.05.42-.16.59c-.11.17-.27.29-.47.38-.2.09-.44.13-.71.13h-1.03c-.3 0-.56-.05-.77-.15Z"/><path class="uuid-4856beeb-44d3-43d9-a6c3-3d353ae8e49a" d="m63.5 112.24-.29-13.99.68.08.28 13.99-.67-.08z"/><path class="uuid-34a998c2-7300-4f8e-9804-239b63194807" d="M70.29 111.04H58.92l-.03.03v8.76h11.4v-8.79Z"/><path class="uuid-0b77231a-daf1-4e23-9240-f6ab09747622" d="M62.36 113.94c.09-.19.23-.33.42-.42.19-.09.42-.14.71-.14h1.98v.83h-1.92c-.11 0-.2.01-.26.04s-.11.08-.14.14c-.03.06-.04.15-.04.26v.32h2.26v.83h-2.26v1.58h-.89v-2.73c0-.29.05-.52.14-.71ZM69.01 117.38h-1.67c-.29 0-.53-.05-.71-.14-.19-.09-.33-.23-.42-.42s-.14-.43-.14-.71v-2.73h.89v2.73c0 .11.01.2.04.26.03.07.07.11.14.14.07.03.15.04.26.04h1.61v.83Z"/><path class="uuid-93c8b308-abb1-44cb-8d39-7552c1302d85" d="M59.76 113.98h.88v5.83h-.88z"/><path d="M59.76 114.95h.88v.97h-.88zM59.76 116.89h.88v.97h-.88zM59.76 118.83h.88v.97h-.88z"/><path class="uuid-93c8b308-abb1-44cb-8d39-7552c1302d85" d="M58.88 113.98h.88v5.83h-.88z"/><path d="M58.88 113.98h.88v.97h-.88zM58.88 115.92h.88v.97h-.88zM58.88 117.86h.88v.97h-.88z"/><path class="uuid-93c8b308-abb1-44cb-8d39-7552c1302d85" d="M59.76 111.07h.88v2.91h-.88z"/><path d="M59.76 111.07h.88v.97h-.88zM59.76 113.01h.88v.97h-.88z"/><path class="uuid-93c8b308-abb1-44cb-8d39-7552c1302d85" d="M58.88 111.07h.88v2.91h-.88z"/><path d="M58.88 112.04h.88v.97h-.88z"/><path class="uuid-4856beeb-44d3-43d9-a6c3-3d353ae8e49a" transform="rotate(-.38 32.82611918 104.14669197)" d="M33.04 98.12h.73v11.53h-.73z"/><path d="M38.28 108.59H28.14l-.03.03v8.76h10.17v-8.79Z" style="fill:#f6f6f6"/><path d="M31.12 113.92h2.69c.14 0 .25-.03.33-.09.08-.06.12-.15.12-.27 0-.11-.03-.19-.1-.24-.07-.06-.17-.11-.31-.15l-1.69-.45c-.39-.09-.67-.25-.86-.47-.18-.22-.28-.52-.28-.88 0-.26.06-.5.19-.71.13-.21.31-.37.54-.49.23-.12.51-.18.83-.18h2.58v1.02h-2.58c-.14 0-.26.03-.33.09-.08.06-.12.15-.12.27s.03.2.1.25c.06.06.17.11.31.15l1.68.44c.39.09.68.25.86.48s.28.52.28.88c0 .27-.06.51-.19.71-.13.21-.31.37-.54.49-.23.12-.51.18-.83.18h-2.69v-1.02Z" style="fill:#323232"/><path class="uuid-4856beeb-44d3-43d9-a6c3-3d353ae8e49a" transform="rotate(-44.74 69.8454545 51.00742136)" d="M64.08 50.64h11.53v.73H64.08z"/><path class="uuid-34a998c2-7300-4f8e-9804-239b63194807" d="M66.41 52.98H56.27l-.03.03v8.76h10.17v-8.79Z"/><path class="uuid-0b77231a-daf1-4e23-9240-f6ab09747622" d="M57.94 58.5h1.17v-2.35h-1.17v-.83h3.24v.83H60v2.35h1.18v.83h-3.24v-.83ZM61.8 58.5h1.49v-2.1c0-.07-.02-.13-.05-.17-.03-.04-.08-.06-.16-.06-.04 0-.08 0-.13.02-.05.01-.11.04-.17.06l-.89.29v-.83l.81-.29c.12-.04.23-.08.34-.1s.22-.04.32-.04c.17 0 .31.04.43.11s.22.18.28.32.09.29.09.47v2.33h1.32v.83h-3.7v-.83Z"/><path class="uuid-4856beeb-44d3-43d9-a6c3-3d353ae8e49a" transform="rotate(-82.53 127.52076966 37.03649613)" d="M127.16 31.27h.73V42.8h-.73z"/><path class="uuid-34a998c2-7300-4f8e-9804-239b63194807" d="M141.38 34.28h-10.69l-.03.03v8.76h10.72v-8.79Z"/><path class="uuid-0b77231a-daf1-4e23-9240-f6ab09747622" d="M132.35 39.79h1.17v-2.35h-1.17v-.83h3.24v.83h-1.18v2.35h1.18v.83h-3.24v-.83ZM136.7 40.49c-.18-.09-.32-.21-.42-.36-.09-.16-.14-.34-.14-.55 0-.3.09-.54.27-.73.18-.19.48-.33.9-.41l1.27-.27c.12-.02.21-.05.28-.08.07-.03.11-.07.14-.12.03-.04.05-.11.05-.18 0-.11-.04-.2-.13-.25s-.22-.08-.41-.08h-.92c-.17 0-.3.04-.39.13-.09.09-.13.21-.13.37v.15h-.89v-.24c0-.26.06-.48.17-.67.11-.18.27-.33.49-.43.21-.1.47-.15.78-.15h.88c.47 0 .83.1 1.08.3s.37.49.37.86c0 .22-.04.41-.11.56-.07.15-.18.27-.33.37-.15.09-.34.16-.58.21l-1.5.3c-.13.03-.23.07-.29.12-.07.05-.1.12-.1.2s.03.15.09.2c.06.04.15.07.27.07h2.53v.83h-2.57c-.25 0-.47-.04-.65-.13Z"/></g><circle class="uuid-f5be6253-8d84-4937-9234-2bfde9a34774" cx="3.55" cy="97.87" r="3.55"/><path class="uuid-bfd21b8e-e4d0-4182-aaa7-7aba89c9c3b5" d="M2.44 98.95h.95v-2.1l-.85.19v-.6l1.48-.33v2.85h.87v.61H2.44v-.61Z"/><circle class="uuid-f5be6253-8d84-4937-9234-2bfde9a34774" cx="27.89" cy="74.12" r="3.55"/><path class="uuid-bfd21b8e-e4d0-4182-aaa7-7aba89c9c3b5" d="M27.2 74.65c.18-.18.4-.36.66-.55.21-.15.36-.28.45-.38.09-.1.14-.22.14-.36 0-.13-.04-.23-.13-.31s-.21-.12-.36-.12-.29.04-.42.13c-.12.08-.23.2-.32.36l-.52-.33c.13-.25.3-.43.52-.57.21-.13.46-.2.74-.2.22 0 .42.04.59.13.17.08.3.2.39.35.09.15.14.32.14.52s-.04.36-.11.5-.16.26-.27.35c-.11.1-.25.21-.42.33-.19.13-.33.25-.45.35-.11.1-.2.22-.27.36h1.58v.59h-2.39v-.47c.12-.28.27-.5.45-.68Z"/><circle class="uuid-f5be6253-8d84-4937-9234-2bfde9a34774" cx="83.08" cy="59.81" r="3.55"/><path class="uuid-bfd21b8e-e4d0-4182-aaa7-7aba89c9c3b5" d="M82.34 61.39c-.21-.12-.38-.3-.5-.53l.48-.28c.09.15.19.26.31.33s.27.11.44.11c.19 0 .34-.05.46-.14s.18-.22.18-.38-.06-.28-.17-.38c-.11-.1-.25-.15-.41-.15h-.41v-.52h.41c.15 0 .26-.04.35-.12s.13-.18.13-.32-.05-.23-.14-.31c-.1-.08-.23-.12-.4-.12-.3 0-.54.14-.71.42l-.48-.28c.28-.46.69-.69 1.24-.69.21 0 .41.04.57.12.17.08.3.2.39.34.09.14.14.31.14.49 0 .17-.04.32-.12.45-.08.13-.18.22-.3.28.16.08.29.2.38.35.1.15.14.31.14.48 0 .2-.05.37-.16.53-.1.16-.25.28-.44.37-.19.09-.41.14-.66.14-.28 0-.53-.06-.75-.19Z"/><circle class="uuid-f5be6253-8d84-4937-9234-2bfde9a34774" cx="58.97" cy="36.62" r="3.55"/><path class="uuid-bfd21b8e-e4d0-4182-aaa7-7aba89c9c3b5" d="m57.7 37.08.94-2.18h.65l-.92 2.1h.86v-.79h.63V37h.5v.59h-.5v.71h-.63v-.71h-1.54v-.51Z"/><circle class="uuid-f5be6253-8d84-4937-9234-2bfde9a34774" cx="107.75" cy="3.55" r="3.55"/><path class="uuid-bfd21b8e-e4d0-4182-aaa7-7aba89c9c3b5" d="M107.03 5.13c-.21-.12-.37-.3-.49-.53l.53-.33c.15.29.39.43.71.43.2 0 .35-.05.47-.16s.18-.25.18-.43-.06-.33-.17-.44-.28-.17-.48-.17c-.24 0-.45.09-.62.27l-.42-.27.33-1.67h1.82v.6h-1.34l-.13.64c.13-.06.28-.08.44-.08.25 0 .46.05.64.15.18.1.32.23.41.41.1.17.15.37.15.59s-.05.42-.16.6c-.1.18-.25.32-.45.42-.2.1-.43.16-.69.16s-.51-.06-.72-.18Z"/><circle class="uuid-f5be6253-8d84-4937-9234-2bfde9a34774" cx="109.04" cy="25.99" r="3.55"/><path class="uuid-bfd21b8e-e4d0-4182-aaa7-7aba89c9c3b5" d="M108.46 27.59c-.2-.11-.35-.26-.46-.45s-.17-.39-.17-.61c0-.27.09-.53.28-.78l1.12-1.47h.77l-.83 1.06h.04c.21 0 .41.05.59.16s.32.25.43.43c.11.18.16.39.16.62s-.05.42-.17.61c-.11.18-.26.33-.46.44-.2.11-.41.16-.65.16s-.46-.05-.65-.17Zm1.11-.62c.12-.12.18-.27.18-.45s-.06-.33-.18-.45-.28-.18-.46-.18-.34.06-.47.19c-.13.12-.19.28-.19.46s.06.32.18.44.28.18.47.18.35-.06.47-.18Z"/><circle class="uuid-f5be6253-8d84-4937-9234-2bfde9a34774" cx="96.64" cy="39.51" r="3.55"/><path class="uuid-bfd21b8e-e4d0-4182-aaa7-7aba89c9c3b5" d="M97.18 38.4h-1.74v-.6h2.44v.51l-1.39 2.89h-.67l1.37-2.8Z"/><circle class="uuid-f5be6253-8d84-4937-9234-2bfde9a34774" cx="128.29" cy="49.42" r="3.55"/><path class="uuid-bfd21b8e-e4d0-4182-aaa7-7aba89c9c3b5" d="M127.73 51.05c-.18-.09-.33-.22-.43-.37-.1-.16-.15-.33-.15-.53 0-.17.04-.33.13-.48.09-.15.21-.26.37-.35-.1-.05-.2-.14-.28-.28-.08-.14-.12-.29-.12-.45 0-.18.05-.34.14-.48.09-.14.22-.25.39-.33.17-.08.36-.12.57-.12s.41.04.57.12c.17.08.3.19.39.33.09.14.14.3.14.48 0 .17-.04.32-.11.45-.08.13-.17.22-.28.28.15.08.27.2.36.35.09.15.14.31.14.48 0 .19-.05.37-.15.53-.1.16-.25.28-.43.37-.18.09-.39.14-.63.14s-.45-.04-.63-.14Zm1.05-.56c.11-.1.16-.23.16-.39s-.06-.28-.17-.38c-.11-.1-.25-.15-.42-.15s-.31.05-.42.16c-.11.1-.17.23-.17.38 0 .16.05.29.16.39.11.1.25.15.42.15s.31-.05.42-.15Zm-.06-1.55c.09-.08.13-.18.13-.32s-.04-.23-.13-.31c-.09-.08-.21-.12-.36-.12s-.28.04-.36.12c-.09.08-.13.18-.13.31s.04.24.13.32.21.12.36.12.28-.04.36-.12Z"/><circle class="uuid-f5be6253-8d84-4937-9234-2bfde9a34774" cx="129.56" cy="21.48" r="3.55"/><path class="uuid-bfd21b8e-e4d0-4182-aaa7-7aba89c9c3b5" d="M130.27 19.85c.2.11.35.26.46.45s.17.39.17.61c0 .27-.09.53-.28.78l-1.12 1.47h-.77l.83-1.06h-.04c-.21 0-.41-.05-.59-.16s-.32-.25-.43-.43c-.11-.18-.16-.39-.16-.62s.06-.42.17-.61c.11-.18.26-.33.46-.44.2-.11.41-.16.65-.16s.46.06.65.17Zm-1.12.63c-.12.12-.18.27-.18.45s.06.33.18.45.28.18.46.18.34-.06.47-.19c.13-.12.19-.28.19-.46s-.06-.32-.18-.44-.28-.18-.47-.18-.35.06-.47.18Z"/><circle class="uuid-f5be6253-8d84-4937-9234-2bfde9a34774" cx="188.1" cy="66.22" r="3.55"/><path class="uuid-bfd21b8e-e4d0-4182-aaa7-7aba89c9c3b5" d="M185.58 67.3h.95v-2.1l-.85.19v-.6l1.48-.33v2.85h.87v.61h-2.45v-.61ZM188.93 67.82c-.19-.11-.34-.25-.45-.44-.11-.19-.16-.41-.16-.65v-1.06c0-.24.05-.46.16-.65s.26-.34.45-.44c.19-.11.4-.16.63-.16s.45.05.64.16.34.25.45.44c.11.19.16.4.16.65v1.06c0 .25-.05.46-.16.65s-.26.33-.45.44-.4.16-.64.16-.44-.05-.63-.16Zm1.09-.63c.11-.12.17-.28.17-.48V65.7c0-.21-.06-.37-.17-.49s-.26-.18-.46-.18-.34.06-.46.18c-.11.12-.17.28-.17.49v1.01c0 .2.05.36.17.48.11.12.26.18.46.18s.34-.06.46-.18Z"/><circle class="uuid-f5be6253-8d84-4937-9234-2bfde9a34774" cx="145.98" cy="60.98" r="3.55"/><path class="uuid-bfd21b8e-e4d0-4182-aaa7-7aba89c9c3b5" d="M143.46 62.06h.95v-2.1l-.85.19v-.6l1.48-.33v2.85h.87v.61h-2.45v-.61ZM146.27 62.06h.95v-2.1l-.85.19v-.6l1.48-.33v2.85h.87v.61h-2.45v-.61Z"/><circle class="uuid-f5be6253-8d84-4937-9234-2bfde9a34774" cx="150.17" cy="85.53" r="3.55"/><path class="uuid-bfd21b8e-e4d0-4182-aaa7-7aba89c9c3b5" d="M147.65 86.61h.95v-2.1l-.85.19v-.6l1.48-.33v2.85h.87v.61h-2.45v-.61ZM150.89 86.05c.18-.18.4-.36.66-.55.21-.15.36-.28.45-.38.09-.1.14-.22.14-.36 0-.13-.04-.23-.13-.31s-.21-.12-.36-.12-.29.04-.42.13c-.12.08-.23.2-.32.36l-.52-.33c.13-.25.3-.43.52-.57.21-.13.46-.2.74-.2.22 0 .42.04.59.13.17.08.3.2.39.35.09.15.14.32.14.52s-.04.36-.11.5-.16.26-.27.35c-.11.1-.25.21-.42.33-.19.13-.33.25-.45.35-.11.1-.2.22-.27.36h1.58v.59h-2.39v-.47c.12-.28.27-.5.45-.68Z"/><circle class="uuid-f5be6253-8d84-4937-9234-2bfde9a34774" cx="88.56" cy="78.31" r="3.55"/><path class="uuid-bfd21b8e-e4d0-4182-aaa7-7aba89c9c3b5" d="M86.04 79.39h.95v-2.1l-.85.19v-.6l1.48-.33v2.85h.87v.61h-2.45v-.61ZM89.23 79.88c-.21-.12-.38-.3-.5-.53l.48-.28c.09.15.19.26.31.33s.27.11.44.11c.19 0 .34-.05.46-.14s.18-.22.18-.38-.06-.28-.17-.38c-.11-.1-.25-.15-.41-.15h-.41v-.52h.41c.15 0 .26-.04.35-.12s.13-.18.13-.32-.05-.23-.14-.31c-.1-.08-.23-.12-.4-.12-.3 0-.54.14-.71.42l-.48-.28c.28-.46.69-.69 1.24-.69.21 0 .41.04.57.12.17.08.3.2.39.34.09.14.14.31.14.49 0 .17-.04.32-.12.45-.08.13-.18.22-.3.28.16.08.29.2.38.35.1.15.14.31.14.48 0 .2-.05.37-.16.53-.1.16-.25.28-.44.37-.19.09-.41.14-.66.14-.28 0-.53-.06-.75-.19Z"/><circle class="uuid-f5be6253-8d84-4937-9234-2bfde9a34774" cx="95.44" cy="107.44" r="3.55"/><path class="uuid-bfd21b8e-e4d0-4182-aaa7-7aba89c9c3b5" d="M92.93 108.52h.95v-2.1l-.85.19v-.6l1.48-.33v2.85h.87v.61h-2.45v-.61ZM95.58 107.9l.94-2.18h.65l-.92 2.1h.86v-.79h.63v.79h.5v.59h-.5v.71h-.63v-.71h-1.54v-.51Z"/></svg>