<svg xmlns="http://www.w3.org/2000/svg" id="uuid-7c2c02ae-7cff-4e90-8339-99f2c40696fc" data-name="Capa 1" viewBox="0 0 165.02 195.68"><defs><style>.uuid-e027c11b-95ef-4006-9e04-c47e50a0e1e6{fill:#444}.uuid-37ab9e80-8c2f-4d8a-a59b-d6d859eb9e14{fill:#e6e6e6}.uuid-d8ff6e28-9976-4d7b-b98d-34b645864530{fill:#c6c6c6}.uuid-c577e14f-f0b2-41e4-9784-cf1b01d083f4{fill:#fafafa}.uuid-f82fcde4-3f30-46a9-a776-71ac26c91669{fill:red}.uuid-6e572611-3b42-442d-a649-7efca63a1623{fill:#ededed}</style></defs><path d="M65.12 188.23c-1.48 0-3.34-.59-5.38-2.64-1.22-1.22-1.81-2.64-1.76-4.24.1-3.67 3.66-6.89 3.81-7.03l.11-.08 15.16-10.15c.07-.04 1.97-1.21 1.52-2.37-.61-1.56-2.18-3.35-2.59-3.8-.35-.22-.7-.63-.81-1.24-.28-1.53 1.08-3.54 4.28-6.33 5.78-5.06 35.09-32.26 35.38-32.54l8.85-7.82c.23-.25 1.57-2.06 2.21-10.48.3-3.92.78-7.08 1.21-9.85.68-4.37 1.17-7.54.28-10.4-.73-2.35-3.27-5.5-5.73-8.55-2.41-2.99-4.7-5.82-5.62-8.23-.65-1.68-.39-2.88.52-6.41.5-1.95 1.14-3.42 1.65-4.59.42-.97.75-1.74.9-2.49.11-.54 0-2.36-.12-3.49l-.02-.23.05-.13c-.06-.13-.7-1.2-5.5-1.2H16.18c-.2-.01-10.2-1.12-9.47-12.1.03-.24.6-3.82 1.54-5.82.89-1.89 6.89-13.79 7.15-14.29l.06-.1c.17-.26 4.27-6.36 10.31-6.36l13.62.03c.44.11 4.29 1.15 4.44 4.04.01.25.06.51.1.78.48 3.02.16 6.35-9.37 10.87l-6.31 3.21c-.27.45-.9 1.67-.56 2.75.24.77.97 1.38 2.17 1.84h113.43c1.88.09 5.35 1.12 5.35 4.34s-1.33 7.28-1.39 7.45l-.14.27s-.44.64-.28 1.37c.12.56.57 1.07 1.33 1.54 1.71 1.04 4.63 3 4.92 4.45.83 4.02-.98 5.49-2.13 6.01-2.27 1.04-5.37.87-6.36.78-.17.13-.5.48-.65 1.28-.23 1.25-.38 9.71-.43 15.1l-.34 20.64c-.08.57-1.96 14.18-5.98 23.45-3.55 8.18-6.18 13.39-6.73 14.46-.23 1.48-2.94 3.45-8.25 6-7.46 3.57-10.76 5.02-11.24 5.23-.13.08-.68.46-.78 1-.07.41.14.91.63 1.47.95 1.09 1.53 1.76 1.79 2.24.29.36.65.97.67 1.83.02 1.46-.95 3.02-2.91 4.61-4.18 3.41-32.15 26.85-32.43 27.08l-9.49 7.7s-1.29 1.12-3.31 1.12Zm-2.05-12.37c-.38.36-3.03 2.94-3.1 5.55-.03 1.04.36 1.94 1.18 2.76 3.53 3.53 5.89 1.5 5.99 1.41l9.51-7.72c.27-.23 28.25-23.67 32.44-27.09 1.87-1.53 2.17-2.53 2.17-2.99 0-.43-.23-.66-.27-.7 0 0-.01 0-.02-.01l.47-.59-.63.31s-.25-.37-1.52-1.83c-.91-1.05-1.27-2.1-1.09-3.15.28-1.53 1.65-2.32 1.81-2.4.11-.05 3.29-1.42 11.31-5.26 5.53-2.65 6.81-4.04 7.08-4.44l-.03-.11.19-.36c.03-.05 2.82-5.43 6.77-14.54 3.78-8.72 5.69-21.89 5.83-22.87l.33-20.45c.01-1.38.12-13.62.46-15.44.43-2.32 1.97-2.84 2.14-2.89l.2-.06.21.02s3.44.4 5.6-.59c1.08-.49 1.42-1.74 1.01-3.71-.12-.31-1.06-1.42-4.02-3.22-1.27-.77-2.03-1.74-2.26-2.87-.26-1.3.28-2.37.53-2.77.21-.67 1.25-4.07 1.25-6.7 0-2.13-3.37-2.34-3.4-2.35H29.5l-.16-.06c-1.92-.68-3.12-1.75-3.57-3.19-.72-2.32.9-4.6.97-4.69l.14-.2 6.79-3.45c9-4.27 8.58-6.87 8.28-8.76-.06-.35-.11-.69-.12-1-.06-1.15-1.99-1.94-2.81-2.17H25.77c-4.72 0-8.26 4.91-8.61 5.42-.47.93-6.25 12.39-7.09 14.19-.82 1.74-1.36 5.16-1.37 5.19-.57 8.69 6.83 9.8 7.54 9.88h97.28c3.85 0 6.17.64 7.09 1.96.38.54.45 1.12.38 1.55.07.75.27 2.99.08 3.93-.19.95-.58 1.85-1.03 2.89-.51 1.17-1.08 2.5-1.55 4.3-.9 3.5-.98 4.18-.59 5.19.81 2.11 3.1 4.95 5.31 7.69 2.57 3.19 5.24 6.49 6.08 9.21 1.03 3.31.51 6.66-.21 11.3-.43 2.74-.91 5.85-1.2 9.7-.69 9.16-2.26 11.43-3.07 11.99l-8.64 7.64c-.28.26-29.61 27.48-35.41 32.56-3.29 2.88-3.61 4.1-3.63 4.4h.03l.16.18c.09.1 2.26 2.4 3.1 4.56.86 2.21-1.05 4.05-2.32 4.79l-15.05 10.07Zm60.59-65.83Z" style="fill:#a0a0a0"/><g id="uuid-db86d1a1-ce10-4622-ab02-5b1e2cc28490" data-name="PUNTOS INTERMEDIOS Y SEMAFORO"><path class="uuid-37ab9e80-8c2f-4d8a-a59b-d6d859eb9e14" transform="rotate(-74.06 135.1655317 121.31970934)" d="M134.81 115.56h.73v11.53h-.73z"/><path class="uuid-f82fcde4-3f30-46a9-a776-71ac26c91669" d="M149.68 118.86h-10.14l-.03.03v8.76h10.17v-8.79Z"/><path class="uuid-6e572611-3b42-442d-a649-7efca63a1623" d="M140.82 124.38h1.17v-2.35h-1.17v-.83h3.24v.83h-1.18v2.35h1.18v.83h-3.24v-.83ZM145.25 125.05c-.21-.1-.38-.25-.49-.43-.11-.19-.17-.41-.17-.67v-.51h.9v.43c0 .16.05.28.14.37.09.09.22.13.38.13h1.03c.15 0 .26-.03.34-.1.08-.06.12-.16.12-.29 0-.12-.04-.21-.12-.28-.08-.06-.19-.09-.34-.09h-1.11v-.83H147c.14 0 .26-.03.34-.1.08-.06.12-.16.12-.29 0-.12-.04-.21-.12-.28-.08-.06-.19-.09-.34-.09h-1c-.16 0-.29.04-.38.13-.09.09-.14.21-.14.37v.26h-.89v-.34c0-.26.06-.48.17-.67s.27-.33.49-.43c.21-.1.47-.15.77-.15h1.01c.27 0 .5.04.7.13s.35.21.46.38c.11.17.16.36.16.59 0 .2-.04.38-.14.53-.09.15-.23.27-.42.37.21.1.37.22.46.37.09.14.14.32.14.54s-.05.42-.16.59c-.11.17-.27.29-.47.38-.2.09-.44.13-.71.13h-1.03c-.3 0-.56-.05-.77-.15Z"/><path class="uuid-37ab9e80-8c2f-4d8a-a59b-d6d859eb9e14" d="m86.88 34.32-.09-15.85.83.08.08 15.85-.82-.08z"/><path class="uuid-f82fcde4-3f30-46a9-a776-71ac26c91669" d="M92.96 15.56H81.59l-.03.03v8.76h11.4v-8.79Z"/><path class="uuid-6e572611-3b42-442d-a649-7efca63a1623" d="M85.03 18.46c.09-.19.23-.33.42-.42.19-.09.42-.14.71-.14h1.98v.83h-1.92c-.11 0-.2.01-.26.04s-.11.08-.14.14c-.03.06-.04.15-.04.26v.32h2.26v.83h-2.26v1.58h-.89v-2.73c0-.29.05-.52.14-.71ZM91.69 21.9h-1.67c-.29 0-.53-.05-.71-.14-.19-.09-.33-.23-.42-.42s-.14-.43-.14-.71V17.9h.89v2.73c0 .11.01.2.04.26.03.07.07.11.14.14.07.03.15.04.26.04h1.61v.83Z"/><path class="uuid-c577e14f-f0b2-41e4-9784-cf1b01d083f4" d="M82.44 18.5h.88v5.83h-.88z"/><path d="M82.44 19.47h.88v.97h-.88zM82.44 21.41h.88v.97h-.88zM82.44 23.35h.88v.97h-.88z"/><path class="uuid-c577e14f-f0b2-41e4-9784-cf1b01d083f4" d="M81.56 18.5h.88v5.83h-.88z"/><path d="M81.56 18.5h.88v.97h-.88zM81.56 20.44h.88v.97h-.88zM81.56 22.38h.88v.97h-.88z"/><path class="uuid-c577e14f-f0b2-41e4-9784-cf1b01d083f4" d="M82.44 15.58h.88v2.91h-.88z"/><path d="M82.44 15.58h.88v.97h-.88zM82.44 17.52h.88v.97h-.88z"/><path class="uuid-c577e14f-f0b2-41e4-9784-cf1b01d083f4" d="M81.56 15.58h.88v2.91h-.88z"/><path d="M81.56 16.55h.88v.97h-.88z"/><path class="uuid-37ab9e80-8c2f-4d8a-a59b-d6d859eb9e14" transform="rotate(-.38 51.16945691 28.81778475)" d="M51.04 22.53h.73v11.53h-.73z"/><path d="M56.68 16.19H46.54l-.03.03v8.76h10.17v-8.79Z" style="fill:#f6f6f6"/><path d="M49.52 21.51h2.69c.14 0 .25-.03.33-.09.08-.06.12-.15.12-.27 0-.11-.03-.19-.1-.24-.07-.06-.17-.11-.31-.15l-1.69-.45c-.39-.09-.67-.25-.86-.47-.18-.22-.28-.52-.28-.88 0-.26.06-.5.19-.71.13-.21.31-.37.54-.49.23-.12.51-.18.83-.18h2.58v1.02h-2.58c-.14 0-.26.03-.33.09-.08.06-.12.15-.12.27s.03.2.1.25c.06.06.17.11.31.15l1.68.44c.39.09.68.25.86.48s.28.52.28.88c0 .27-.06.51-.19.71-.13.21-.31.37-.54.49-.23.12-.51.18-.83.18h-2.69v-1.02Z" style="fill:#323232"/><path class="uuid-37ab9e80-8c2f-4d8a-a59b-d6d859eb9e14" transform="rotate(-1 64.93053057 44.6866303)" d="M64.33 38.78h.73v11.53h-.73z"/><path class="uuid-f82fcde4-3f30-46a9-a776-71ac26c91669" d="M69.78 49.29H59.64l-.03.03v8.76h10.17v-8.79Z"/><path class="uuid-6e572611-3b42-442d-a649-7efca63a1623" d="M61.31 54.81h1.17v-2.35h-1.17v-.83h3.24v.83h-1.18v2.35h1.18v.83h-3.24v-.83ZM65.17 54.81h1.49v-2.1c0-.07-.02-.13-.05-.17-.03-.04-.08-.06-.16-.06-.04 0-.08 0-.13.02-.05.01-.11.04-.17.06l-.89.29v-.83l.81-.29c.12-.04.23-.08.34-.1s.22-.04.32-.04c.17 0 .31.04.43.11s.22.18.28.32.09.29.09.47v2.33h1.32v.83h-3.7v-.83Z"/><path class="uuid-37ab9e80-8c2f-4d8a-a59b-d6d859eb9e14" transform="rotate(-52.77 83.83341854 145.9318246)" d="M83.45 140.16h.73v11.53h-.73z"/><path class="uuid-f82fcde4-3f30-46a9-a776-71ac26c91669" d="M82.05 135.28H71.36l-.03.03v8.76h10.72v-8.79Z"/><path class="uuid-6e572611-3b42-442d-a649-7efca63a1623" d="M73.03 140.8h1.17v-2.35h-1.17v-.83h3.24v.83h-1.18v2.35h1.18v.83h-3.24v-.83ZM77.37 141.5c-.18-.09-.32-.21-.42-.36-.09-.16-.14-.34-.14-.55 0-.3.09-.54.27-.73.18-.19.48-.33.9-.41l1.27-.27c.12-.02.21-.05.28-.08.07-.03.11-.07.14-.12.03-.04.05-.11.05-.18 0-.11-.04-.2-.13-.25s-.22-.08-.41-.08h-.92c-.17 0-.3.04-.39.13-.09.09-.13.21-.13.37v.15h-.89v-.24c0-.26.06-.48.17-.67.11-.18.27-.33.49-.43.21-.1.47-.15.78-.15h.88c.47 0 .83.1 1.08.3s.37.49.37.86c0 .22-.04.41-.11.56-.07.15-.18.27-.33.37-.15.09-.34.16-.58.21l-1.5.3c-.13.03-.23.07-.29.12-.07.05-.1.12-.1.2s.03.15.09.2c.06.04.15.07.27.07h2.53v.83h-2.57c-.25 0-.47-.04-.65-.13Z"/></g><circle class="uuid-e027c11b-95ef-4006-9e04-c47e50a0e1e6" cx="19.77" cy="30.99" r="3.55"/><path class="uuid-d8ff6e28-9976-4d7b-b98d-34b645864530" d="M18.65 32.07h.95v-2.1l-.85.19v-.6l1.48-.33v2.85h.87v.61h-2.45v-.61Z"/><circle class="uuid-e027c11b-95ef-4006-9e04-c47e50a0e1e6" cx="49.42" cy="3.72" r="3.55"/><path class="uuid-d8ff6e28-9976-4d7b-b98d-34b645864530" d="M48.74 4.25c.18-.18.4-.36.66-.55.21-.15.36-.28.45-.38.09-.1.14-.22.14-.36 0-.13-.04-.23-.13-.31s-.21-.12-.36-.12-.29.04-.42.13c-.12.08-.23.2-.32.36l-.52-.33c.13-.25.3-.43.52-.57.21-.13.46-.2.74-.2.22 0 .42.04.59.13.17.08.3.2.39.35.09.15.14.32.14.52s-.04.36-.11.5-.16.26-.27.35c-.11.1-.25.21-.42.33-.19.13-.33.25-.45.35-.11.1-.2.22-.27.36h1.58v.59h-2.39v-.47c.12-.28.27-.5.45-.68Z"/><circle class="uuid-e027c11b-95ef-4006-9e04-c47e50a0e1e6" cx="12.22" cy="3.72" r="3.55"/><path class="uuid-d8ff6e28-9976-4d7b-b98d-34b645864530" d="M11.48 5.29c-.21-.12-.38-.3-.5-.53l.48-.28c.09.15.19.26.31.33s.27.11.44.11c.19 0 .34-.05.46-.14s.18-.22.18-.38-.06-.28-.17-.38c-.11-.1-.25-.15-.41-.15h-.41v-.52h.41c.15 0 .26-.04.35-.12s.13-.18.13-.32-.05-.23-.14-.31c-.1-.08-.23-.12-.4-.12-.3 0-.54.14-.71.42l-.48-.28c.28-.46.69-.69 1.24-.69.21 0 .41.04.57.12.17.08.3.2.39.34.09.14.14.31.14.49 0 .17-.04.32-.12.45-.08.13-.18.22-.3.28.16.08.29.2.38.35.1.15.14.31.14.48 0 .2-.05.37-.16.53-.1.16-.25.28-.44.37-.19.09-.41.14-.66.14-.28 0-.53-.06-.75-.19Z"/><circle class="uuid-e027c11b-95ef-4006-9e04-c47e50a0e1e6" cx="3.9" cy="46.14" r="3.55"/><path class="uuid-d8ff6e28-9976-4d7b-b98d-34b645864530" d="m2.64 46.61.94-2.18h.65l-.92 2.1h.86v-.79h.63v.79h.5v.59h-.5v.71h-.63v-.71H2.63v-.51Z"/><circle class="uuid-e027c11b-95ef-4006-9e04-c47e50a0e1e6" cx="125.3" cy="39.15" r="3.55"/><path class="uuid-d8ff6e28-9976-4d7b-b98d-34b645864530" d="M124.58 40.72c-.21-.12-.37-.3-.49-.53l.53-.33c.15.29.39.43.71.43.2 0 .35-.05.47-.16s.18-.25.18-.43-.06-.33-.17-.44-.28-.17-.48-.17c-.24 0-.45.09-.62.27l-.42-.27.33-1.67h1.82v.6h-1.34l-.13.64c.13-.06.28-.08.44-.08.25 0 .46.05.64.15.18.1.32.23.41.41.1.17.15.37.15.59s-.05.42-.16.6c-.1.18-.25.32-.45.42-.2.1-.43.16-.69.16s-.51-.06-.72-.18Z"/><circle class="uuid-e027c11b-95ef-4006-9e04-c47e50a0e1e6" cx="108.06" cy="63.5" r="3.55"/><path class="uuid-d8ff6e28-9976-4d7b-b98d-34b645864530" d="M107.48 65.1c-.2-.11-.35-.26-.46-.45s-.17-.39-.17-.61c0-.27.09-.53.28-.78l1.12-1.47h.77l-.83 1.06h.04c.21 0 .41.05.59.16s.32.25.43.43c.11.18.16.39.16.62s-.05.42-.17.61c-.11.18-.26.33-.46.44-.2.11-.41.16-.65.16s-.46-.05-.65-.17Zm1.11-.62c.12-.12.18-.27.18-.45s-.06-.33-.18-.45-.28-.18-.46-.18-.34.06-.47.19c-.13.12-.19.28-.19.46s.06.32.18.44.28.18.47.18.35-.06.47-.18Z"/><circle class="uuid-e027c11b-95ef-4006-9e04-c47e50a0e1e6" cx="120.16" cy="81.58" r="3.55"/><path class="uuid-d8ff6e28-9976-4d7b-b98d-34b645864530" d="M120.7 80.47h-1.74v-.6h2.44v.51l-1.39 2.89h-.67l1.37-2.8Z"/><circle class="uuid-e027c11b-95ef-4006-9e04-c47e50a0e1e6" cx="117.81" cy="104.7" r="3.55"/><path class="uuid-d8ff6e28-9976-4d7b-b98d-34b645864530" d="M117.25 106.32c-.18-.09-.33-.22-.43-.37-.1-.16-.15-.33-.15-.53 0-.17.04-.33.13-.48.09-.15.21-.26.37-.35-.1-.05-.2-.14-.28-.28-.08-.14-.12-.29-.12-.45 0-.18.05-.34.14-.48.09-.14.22-.25.39-.33.17-.08.36-.12.57-.12s.41.04.57.12c.17.08.3.19.39.33.09.14.14.3.14.48 0 .17-.04.32-.11.45-.08.13-.17.22-.28.28.15.08.27.2.36.35.09.15.14.31.14.48 0 .19-.05.37-.15.53-.1.16-.25.28-.43.37-.18.09-.39.14-.63.14s-.45-.04-.63-.14Zm1.05-.55c.11-.1.16-.23.16-.39s-.06-.28-.17-.38c-.11-.1-.25-.15-.42-.15s-.31.05-.42.16c-.11.1-.17.23-.17.38 0 .16.05.29.16.39.11.1.25.15.42.15s.31-.05.42-.15Zm-.06-1.56c.09-.08.13-.18.13-.32s-.04-.23-.13-.31c-.09-.08-.21-.12-.36-.12s-.28.04-.36.12c-.09.08-.13.18-.13.31s.04.24.13.32.21.12.36.12.28-.04.36-.12Z"/><circle class="uuid-e027c11b-95ef-4006-9e04-c47e50a0e1e6" cx="68.87" cy="154.07" r="3.55"/><path class="uuid-d8ff6e28-9976-4d7b-b98d-34b645864530" d="M69.58 152.44c.2.11.35.26.46.45s.17.39.17.61c0 .27-.09.53-.28.78l-1.12 1.47h-.77l.83-1.06h-.04c-.21 0-.41-.05-.59-.16s-.32-.25-.43-.43c-.11-.18-.16-.39-.16-.62s.06-.42.17-.61c.11-.18.26-.33.46-.44.2-.11.41-.16.65-.16s.46.06.65.17Zm-1.12.62c-.12.12-.18.27-.18.45s.06.33.18.45.28.18.46.18.34-.06.47-.19c.13-.12.19-.28.19-.46s-.06-.32-.18-.44-.28-.18-.47-.18-.35.06-.47.18Z"/><circle class="uuid-e027c11b-95ef-4006-9e04-c47e50a0e1e6" cx="86.79" cy="159.3" r="3.55"/><path class="uuid-d8ff6e28-9976-4d7b-b98d-34b645864530" d="M84.28 160.38h.95v-2.1l-.85.19v-.6l1.48-.33v2.85h.87v.61h-2.45v-.61ZM87.63 160.91c-.19-.11-.34-.25-.45-.44-.11-.19-.16-.41-.16-.65v-1.06c0-.24.05-.46.16-.65s.26-.34.45-.44c.19-.11.4-.16.63-.16s.45.05.64.16.34.25.45.44c.11.19.16.4.16.65v1.06c0 .25-.05.46-.16.65s-.26.33-.45.44-.4.16-.64.16-.44-.05-.63-.16Zm1.09-.63c.11-.12.17-.28.17-.48v-1.01c0-.21-.06-.37-.17-.49s-.26-.18-.46-.18-.34.06-.46.18c-.11.12-.17.28-.17.49v1.01c0 .2.05.36.17.48.11.12.26.18.46.18s.34-.06.46-.18Z"/><circle class="uuid-e027c11b-95ef-4006-9e04-c47e50a0e1e6" cx="56.06" cy="192.12" r="3.55"/><path class="uuid-d8ff6e28-9976-4d7b-b98d-34b645864530" d="M53.54 193.2h.95v-2.1l-.85.19v-.6l1.48-.33v2.85h.87v.61h-2.45v-.61ZM56.35 193.2h.95v-2.1l-.85.19v-.6l1.48-.33v2.85h.87v.61h-2.45v-.61Z"/><circle class="uuid-e027c11b-95ef-4006-9e04-c47e50a0e1e6" cx="119.09" cy="150.51" r="3.55"/><path class="uuid-d8ff6e28-9976-4d7b-b98d-34b645864530" d="M116.57 151.59h.95v-2.1l-.85.19v-.6l1.48-.33v2.85h.87v.61h-2.45v-.61ZM119.81 151.04c.18-.18.4-.36.66-.55.21-.15.36-.28.45-.38.09-.1.14-.22.14-.36 0-.13-.04-.23-.13-.31s-.21-.12-.36-.12-.29.04-.42.13c-.12.08-.23.2-.32.36l-.52-.33c.13-.25.3-.43.52-.57.21-.13.46-.2.74-.2.22 0 .42.04.59.13.17.08.3.2.39.35.09.15.14.32.14.52s-.04.36-.11.5-.16.26-.27.35c-.11.1-.25.21-.42.33-.19.13-.33.25-.45.35-.11.1-.2.22-.27.36h1.58v.59h-2.39v-.47c.12-.28.27-.5.45-.68Z"/><circle class="uuid-e027c11b-95ef-4006-9e04-c47e50a0e1e6" cx="100.95" cy="140.52" r="3.55"/><path class="uuid-d8ff6e28-9976-4d7b-b98d-34b645864530" d="M98.44 141.6h.95v-2.1l-.85.19v-.6l1.48-.33v2.85h.87v.61h-2.45v-.61ZM101.62 142.09c-.21-.12-.38-.3-.5-.53l.48-.28c.09.15.19.26.31.33s.27.11.44.11c.19 0 .34-.05.46-.14s.18-.22.18-.38-.06-.28-.17-.38c-.11-.1-.25-.15-.41-.15H102v-.52h.41c.15 0 .26-.04.35-.12s.13-.18.13-.32-.05-.23-.14-.31c-.1-.08-.23-.12-.4-.12-.3 0-.54.14-.71.42l-.48-.28c.28-.46.69-.69 1.24-.69.21 0 .41.04.57.12.17.08.3.2.39.34.09.14.14.31.14.49 0 .17-.04.32-.12.45-.08.13-.18.22-.3.28.16.08.29.2.38.35.1.15.14.31.14.48 0 .2-.05.37-.16.53-.1.16-.25.28-.44.37-.19.09-.41.14-.66.14-.28 0-.53-.06-.75-.19Z"/><circle class="uuid-e027c11b-95ef-4006-9e04-c47e50a0e1e6" cx="133.08" cy="136.97" r="3.55"/><path class="uuid-d8ff6e28-9976-4d7b-b98d-34b645864530" d="M130.56 138.05h.95v-2.1l-.85.19v-.6l1.48-.33v2.85h.87v.61h-2.45v-.61ZM133.22 137.43l.94-2.18h.65l-.92 2.1h.86v-.79h.63v.79h.5v.59h-.5v.71h-.63v-.71h-1.54v-.51Z"/><circle class="uuid-e027c11b-95ef-4006-9e04-c47e50a0e1e6" cx="135.17" cy="53.69" r="3.55"/><path class="uuid-d8ff6e28-9976-4d7b-b98d-34b645864530" d="M132.65 54.77h.95v-2.1l-.85.19v-.6l1.48-.33v2.85h.87v.61h-2.45v-.61ZM135.85 55.26c-.21-.12-.37-.3-.49-.53l.53-.33c.15.29.39.43.71.43.2 0 .35-.05.47-.16s.18-.25.18-.43-.06-.33-.17-.44-.28-.17-.48-.17c-.24 0-.45.09-.62.27l-.42-.27.33-1.67h1.82v.6h-1.34l-.13.64c.13-.06.28-.08.44-.08.25 0 .46.05.64.15.18.1.32.23.41.41.1.17.15.37.15.59s-.05.42-.16.6c-.1.18-.25.32-.45.42-.2.1-.43.16-.69.16s-.51-.06-.72-.18Z"/><circle class="uuid-e027c11b-95ef-4006-9e04-c47e50a0e1e6" cx="159.87" cy="55.37" r="3.55"/><path class="uuid-d8ff6e28-9976-4d7b-b98d-34b645864530" d="M157.35 56.45h.95v-2.1l-.85.19v-.6l1.48-.33v2.85h.87v.61h-2.45v-.61ZM160.68 56.96c-.2-.11-.35-.26-.46-.45s-.17-.39-.17-.61c0-.27.09-.53.28-.78l1.12-1.47h.77l-.83 1.06h.04c.21 0 .41.05.59.16s.32.25.43.43c.11.18.16.39.16.62s-.05.42-.17.61c-.11.18-.26.33-.46.44-.2.11-.41.16-.65.16s-.46-.05-.65-.17Zm1.12-.62c.12-.12.18-.27.18-.45s-.06-.33-.18-.45-.28-.18-.46-.18-.34.06-.47.19c-.13.12-.19.28-.19.46s.06.32.18.44.28.18.47.18.35-.06.47-.18Z"/><circle class="uuid-e027c11b-95ef-4006-9e04-c47e50a0e1e6" cx="154.85" cy="39.15" r="3.55"/><path class="uuid-d8ff6e28-9976-4d7b-b98d-34b645864530" d="M152.33 40.23h.95v-2.1l-.85.19v-.6l1.48-.33v2.85h.87v.61h-2.45v-.61ZM156.79 38.03h-1.74v-.6h2.44v.51l-1.39 2.89h-.67l1.37-2.8Z"/><circle class="uuid-e027c11b-95ef-4006-9e04-c47e50a0e1e6" cx="151.3" cy="23.91" r="3.55"/><path class="uuid-d8ff6e28-9976-4d7b-b98d-34b645864530" d="M148.78 24.99h.95v-2.1l-.85.19v-.6l1.48-.33V25h.87v.61h-2.45V25ZM152.13 25.54c-.18-.09-.33-.22-.43-.37-.1-.16-.15-.33-.15-.53 0-.17.04-.33.13-.48.09-.15.21-.26.37-.35-.1-.05-.2-.14-.28-.28-.08-.14-.12-.29-.12-.45 0-.18.05-.34.14-.48.09-.14.22-.25.39-.33.17-.08.36-.12.57-.12s.41.04.57.12c.17.08.3.19.39.33.09.14.14.3.14.48 0 .17-.04.32-.11.45-.08.13-.17.22-.28.28.15.08.27.2.36.35.09.15.14.31.14.48 0 .19-.05.37-.15.53-.1.16-.25.28-.43.37-.18.09-.39.14-.63.14s-.45-.04-.63-.14Zm1.05-.56c.11-.1.16-.23.16-.39s-.06-.28-.17-.38c-.11-.1-.25-.15-.42-.15s-.31.05-.42.16c-.11.1-.17.23-.17.38 0 .16.05.29.16.39.11.1.25.15.42.15s.31-.05.42-.15Zm-.05-1.55c.09-.08.13-.18.13-.32s-.04-.23-.13-.31c-.09-.08-.21-.12-.36-.12s-.28.04-.36.12c-.09.08-.13.18-.13.31s.04.24.13.32.21.12.36.12.28-.04.36-.12Z"/></svg>