<svg xmlns="http://www.w3.org/2000/svg" id="uuid-bc193cc1-e5fd-4810-8292-87d0dc1458ba" data-name="Capa 1" viewBox="0 0 210 125"><defs><style>.uuid-b0c72c98-d5af-4654-be99-390074411574{fill:#444}.uuid-f288007f-9cd8-42f1-8970-3bf3699c8607{fill:#e6e6e6}.uuid-00f6bf66-c491-484b-abc5-0c575967c33b{fill:#c6c6c6}.uuid-5ea6dc31-e85b-4a5f-b67e-25c9b3612b75{fill:#fafafa}.uuid-70de4a43-eb8c-4e97-8318-59f852999d9e{fill:red}.uuid-cea1da8c-fd2b-4b1d-b85b-9fe1fdd3df4f{fill:#ededed}</style></defs><path d="M87.3 23.74c-1.47-.38-4.18-.87-5.96-1.19-.77-.14-1.38-.25-1.69-.32-1.03-.21-2.62-.79-4.34-2.32-.68-.61-1.62-1.36-2.62-2.16-1.22-.98-2.48-1.99-3.31-2.77-.81-.76-1.78-2.23-2.1-4.1-.26-1.52-.18-3.85 1.71-6.31 1.99-2.6 5.19-3.45 7.53-3.39 3.32.1 7.34 1.74 10.89 3.2 1.09.45 2.12.87 3.03 1.2l-.49 1.35c-.94-.34-1.98-.77-3.08-1.22-3.44-1.41-7.33-3-10.39-3.09-1.9-.05-4.7.65-6.35 2.82-1.26 1.65-1.74 3.4-1.43 5.2.26 1.52 1.07 2.73 1.67 3.3.79.74 2.03 1.74 3.22 2.7 1.01.81 1.96 1.58 2.67 2.21 1.49 1.32 2.82 1.81 3.68 1.99.3.06.9.17 1.66.31 1.81.33 4.54.82 6.06 1.21l-.36 1.39Z" style="fill:#606060"/><path d="M179.32 118.16c-2.04 0-3.67-.81-4.58-2.28-.89-1.44-1.01-3.05-.32-4.52.21-.46 2.06-3.22 6.56-9.89 3.51-5.21 7.88-11.69 8.29-12.5 1.03-2.01.9-3.36-.55-5.75-.45-.74-2.05-3.66-4.26-7.7-4.37-7.99-12.5-22.85-13.64-24-.74-.75-1.99-1.56-3.71-1.13-.74.19-9.4 3.52-46.41 18.27l-.38-.95.38.95c-8.02 3.2-15.69 6.26-21.68 8.65-6.91 2.76-11.47 4.58-12 4.79l-.26.1c-2.19.84-4.91 1.89-8.09.76-1.74-.61-3.4-2.4-4.88-3.97-.35-.37-.68-.73-.99-1.04-.34-.34-.72-.78-1.16-1.29-1.56-1.79-3.91-4.49-5.99-4.67-2.7-.24-4.34 1.34-5.94 2.86-.3.28-.58.55-.86.8-1.3 1.15-2.43 2.16-3.42 3.05-.94.84-1.76 1.58-2.48 2.21-2.57 2.27-5.72 3.08-9.37 2.43-8.79-1.59-12.82-5.35-16.5-9.39-3.52-3.87-16.11-18.31-16.75-19.05-.32-.32-2-2.09-2.01-4.01 0-1.91 1.12-3.51 2.94-4.18.81-.3 3.38-.54 7.55-.86.37-.03.69-.05.93-.07 1.67-.14 3.4-.04 4.71 1.56.71.87 1.37 2.36 2.21 4.25.37.82.74 1.68 1.15 2.54.02.05 2.24 4.75 2.52 5.32.18.37.73 1.49 1.97 2.27.92.58 1.98.53 3.09.47.21-.01.41-.02.61-.03 1.36-.04 38.08-1.52 38.45-1.54.07 0 4.96-.12 10.86-.95 5.68-.8 10.84-1.72 15.34-2.74 4.18-.94 30.73-7.36 30.99-7.42h.06c.06-.02 6.12-1.13 7.54-4.91.02-.06.53-1.47-.5-3.42-.86-1.62-3.03-4.01-8.47-6.2-6.08-2.45-46.36-12.04-46.75-12.12-.71-.16-1.45-.56-2.03-1.09-.49-.45-2.68-2.56-3.33-3.22-.34-.34-3.29-3.38-3.89-4.21-1.72-2.36-1.74-4.45-1.46-5.79.37-1.76 1.54-3.35 3.12-4.26 1.73-.99 3.74-1.11 5.1-1.11 4.64 0 11.59 2.82 14.55 4.03.33.13.59.24.78.31 2.3.9 66.31 26.12 67.82 26.72.23.09.5.2.8.31 2.19.85 5.86 2.28 7.71 3.93 1.96 1.75 3.12 3.34 4.15 4.82.95 1.37 6.19 8.59 7.23 9.9 1.07 1.35 11.62 15.93 12.07 16.55.29.4 2.78 3.92 3.35 5.03 1.12 2.18 1.8 4.86 2.02 7.96.22 3.2 1.05 15.54 1.06 15.67.05.64.23 3.96-.73 5.49-1.01 1.62-2.24 2.82-4.13 4-1.98 1.25-11.48 7.09-13.19 8.07-.26.15-.51.3-.76.45-1.48.88-2.88 1.71-4.37 1.72h-.08ZM168.06 48.2c1.55 0 3.01.64 4.21 1.86 1.24 1.26 7.06 11.82 13.98 24.46 2.11 3.86 3.78 6.92 4.21 7.62 1.54 2.53 2.18 4.71.62 7.75-.44.86-3.62 5.59-8.42 12.71-2.88 4.27-6.14 9.11-6.41 9.63-.39.84-.32 1.71.21 2.57.67 1.08 1.9 1.32 2.84 1.32h.06c.94 0 2.05-.67 3.34-1.44.26-.15.52-.31.78-.46 1.69-.98 11.15-6.79 13.12-8.03 1.63-1.03 2.64-2 3.48-3.35.45-.72.52-2.93.42-4.27 0-.13-.83-12.47-1.06-15.67-.2-2.83-.8-5.24-1.79-7.16-.43-.83-2.45-3.73-3.2-4.78-.1-.14-10.96-15.15-12.01-16.47-1.11-1.4-6.49-8.82-7.31-10-.75-1.08-1.89-2.72-3.84-4.46-1.57-1.41-5.16-2.8-7.08-3.55-.31-.12-.59-.23-.82-.32-1.5-.6-65.5-25.82-67.8-26.72-.2-.08-.47-.19-.81-.33C92.17 8.05 85.23 5.23 81 5.23c-1.13 0-2.77.09-4.07.84-1.09.63-1.89 1.72-2.14 2.91-.28 1.34.1 2.77 1.11 4.16.39.54 2.48 2.73 3.7 3.98.63.64 2.77 2.7 3.25 3.14.37.34.81.53 1.1.6.39.09 40.72 9.67 47.06 12.22 4.82 1.94 8.03 4.35 9.51 7.14 1.42 2.65.76 4.72.61 5.1-1.8 4.75-8.46 6.07-9.07 6.19-1.03.25-26.86 6.49-30.99 7.42-4.55 1.03-9.77 1.96-15.5 2.77-6.02.85-11.03.97-11.08.97-1.5.06-37.08 1.49-38.45 1.54-.19 0-.38.02-.58.03-1.25.07-2.81.15-4.29-.78-1.15-.72-2.06-1.76-2.72-3.1-.28-.58-2.44-5.15-2.53-5.34-.42-.89-.81-1.75-1.18-2.59-.71-1.61-1.38-3.13-1.92-3.78-.61-.74-1.35-.95-2.96-.82-.25.02-.57.04-.94.07-1.72.13-6.3.48-7 .74-1.02.38-1.61 1.2-1.6 2.25 0 .96 1.06 2.22 1.43 2.58l.05.06c.13.15 13.16 15.1 16.74 19.04 3.56 3.92 7.18 7.28 15.34 8.75 3.04.55 5.55-.09 7.65-1.95.71-.63 1.53-1.36 2.47-2.2.99-.89 2.13-1.9 3.43-3.06.26-.23.53-.48.81-.75 1.65-1.58 3.92-3.73 7.53-3.41 2.9.26 5.58 3.33 7.35 5.36.42.48.79.9 1.08 1.19.33.33.67.69 1.03 1.08 1.25 1.33 2.8 2.99 4.07 3.44 2.47.87 4.6.05 6.67-.74l.27-.1c.52-.2 5.33-2.12 11.98-4.78 5.99-2.39 13.66-5.46 21.68-8.65 40.32-16.07 45.94-18.18 46.66-18.36.49-.12.98-.19 1.46-.19Z" style="fill:#a0a0a0"/><circle class="uuid-b0c72c98-d5af-4654-be99-390074411574" cx="77.87" cy="88.61" r="3.51"/><path class="uuid-00f6bf66-c491-484b-abc5-0c575967c33b" d="M76.77 89.67h.94v-2.08l-.84.19v-.6l1.46-.33v2.81h.86v.6h-2.42v-.6Z"/><circle class="uuid-b0c72c98-d5af-4654-be99-390074411574" cx="64.89" cy="77.8" r="3.51"/><path class="uuid-00f6bf66-c491-484b-abc5-0c575967c33b" d="M65.46 77.04c0-.24-.18-.42-.49-.42s-.56.18-.73.48l-.51-.32c.25-.48.68-.75 1.24-.75.67 0 1.1.41 1.1.98 0 1.03-1.11 1.11-1.5 1.87h1.57v.59h-2.37V79c.53-1.18 1.69-1.31 1.69-1.95Z"/><circle class="uuid-b0c72c98-d5af-4654-be99-390074411574" cx="41.45" cy="88.68" r="3.51"/><path class="uuid-00f6bf66-c491-484b-abc5-0c575967c33b" d="m40.23 89.71.47-.28c.17.29.4.44.75.44s.64-.2.64-.52c0-.3-.24-.53-.57-.53h-.4v-.51h.4c.3 0 .47-.17.47-.43s-.2-.43-.54-.43c-.3 0-.53.13-.7.42l-.47-.28c.27-.44.67-.69 1.23-.69.65 0 1.09.4 1.09.94 0 .35-.19.61-.42.72.31.16.52.48.52.82 0 .58-.48 1.03-1.24 1.03-.57 0-.99-.26-1.23-.71Z"/><circle class="uuid-b0c72c98-d5af-4654-be99-390074411574" cx="3.51" cy="47.03" r="3.51"/><path class="uuid-00f6bf66-c491-484b-abc5-0c575967c33b" d="m2.26 47.49.93-2.16h.64l-.91 2.08h.85v-.78h.62v.78h.49v.58h-.49v.7h-.62v-.7H2.25v-.5Z"/><circle class="uuid-b0c72c98-d5af-4654-be99-390074411574" cx="26.24" cy="41.57" r="3.51"/><path class="uuid-00f6bf66-c491-484b-abc5-0c575967c33b" d="m25.05 42.61.52-.32c.15.28.38.43.7.43.39 0 .64-.23.64-.59s-.23-.6-.65-.6c-.25 0-.45.1-.61.27l-.41-.27.33-1.65h1.8v.59h-1.33l-.12.63c.13-.06.27-.08.43-.08.74 0 1.18.48 1.18 1.13s-.47 1.17-1.28 1.17c-.53 0-.97-.25-1.2-.7Z"/><circle class="uuid-b0c72c98-d5af-4654-be99-390074411574" cx="28.59" cy="66.42" r="3.51"/><path class="uuid-00f6bf66-c491-484b-abc5-0c575967c33b" d="M27.39 66.94c0-.27.1-.54.28-.77l1.11-1.46h.76l-.82 1.05h.04c.62 0 1.17.49 1.17 1.2 0 .67-.54 1.19-1.26 1.19s-1.27-.55-1.27-1.21Zm1.9-.01c0-.35-.27-.63-.63-.63s-.65.28-.65.63.26.62.65.62.64-.28.64-.62Z"/><circle class="uuid-b0c72c98-d5af-4654-be99-390074411574" cx="82.59" cy="54.35" r="3.51"/><path class="uuid-00f6bf66-c491-484b-abc5-0c575967c33b" d="M83.13 53.24h-1.72v-.6h2.41v.5L82.44 56h-.67l1.35-2.77Z"/><circle class="uuid-b0c72c98-d5af-4654-be99-390074411574" cx="133.25" cy="43.24" r="3.51"/><path class="uuid-00f6bf66-c491-484b-abc5-0c575967c33b" d="M132.11 43.95c0-.34.19-.65.49-.82-.2-.09-.39-.38-.39-.72 0-.54.45-.93 1.09-.93s1.09.38 1.09.93c0 .35-.18.61-.39.72.3.16.49.48.49.82 0 .58-.48 1.03-1.2 1.03s-1.2-.45-1.2-1.03Zm1.78-.04c0-.3-.24-.53-.58-.53s-.58.23-.58.53c0 .32.25.53.58.53s.58-.21.58-.53Zm-.09-1.47c0-.25-.18-.43-.49-.43s-.49.17-.49.43.18.43.49.43.49-.17.49-.43Z"/><circle class="uuid-b0c72c98-d5af-4654-be99-390074411574" cx="80.21" cy="27.66" r="3.51"/><path class="uuid-00f6bf66-c491-484b-abc5-0c575967c33b" d="M81.54 27.1c0 .27-.1.54-.28.77l-1.11 1.46h-.76l.82-1.05h-.04c-.62 0-1.17-.49-1.17-1.2 0-.67.54-1.19 1.26-1.19s1.27.55 1.27 1.21Zm-1.91.01c0 .35.27.63.63.63s.65-.28.65-.63-.26-.62-.65-.62-.64.28-.64.62Z"/><circle class="uuid-b0c72c98-d5af-4654-be99-390074411574" cx="62.9" cy="3.76" r="3.51"/><path class="uuid-00f6bf66-c491-484b-abc5-0c575967c33b" d="M60.41 4.82h.94V2.74l-.84.19v-.6L61.97 2v2.81h.86v.6h-2.42v-.6ZM63.11 4.26V3.21c0-.74.54-1.23 1.23-1.23s1.23.49 1.23 1.23v1.05c0 .74-.54 1.23-1.23 1.23s-1.23-.5-1.23-1.23Zm1.85-.02v-1c0-.41-.23-.66-.61-.66s-.61.25-.61.66v1c0 .41.23.66.61.66s.61-.25.61-.66Z"/><circle class="uuid-b0c72c98-d5af-4654-be99-390074411574" cx="175.6" cy="33.66" r="3.51"/><path class="uuid-00f6bf66-c491-484b-abc5-0c575967c33b" d="M173.11 34.72h.94v-2.08l-.84.19v-.6l1.46-.33v2.81h.86v.6h-2.42v-.6ZM175.88 34.72h.94v-2.08l-.84.19v-.6l1.46-.33v2.81h.86v.6h-2.42v-.6Z"/><circle class="uuid-b0c72c98-d5af-4654-be99-390074411574" cx="205.51" cy="74.09" r="3.51"/><path class="uuid-00f6bf66-c491-484b-abc5-0c575967c33b" d="M203.02 75.16h.94v-2.08l-.84.19v-.6l1.46-.33v2.81h.86v.6h-2.42v-.6ZM207.46 73.34c0-.24-.18-.42-.49-.42s-.56.18-.73.48l-.51-.32c.25-.48.68-.75 1.24-.75.67 0 1.1.41 1.1.98 0 1.03-1.11 1.11-1.5 1.87h1.57v.59h-2.37v-.47c.53-1.18 1.69-1.31 1.69-1.95Z"/><circle class="uuid-b0c72c98-d5af-4654-be99-390074411574" cx="206.49" cy="107.12" r="3.51"/><path class="uuid-00f6bf66-c491-484b-abc5-0c575967c33b" d="M204 108.19h.94v-2.08l-.84.19v-.6l1.46-.33v2.81h.86v.6H204v-.6ZM206.65 108.15l.47-.28c.17.29.4.44.75.44s.64-.2.64-.52c0-.3-.24-.53-.57-.53h-.4v-.51h.4c.3 0 .47-.17.47-.43s-.2-.43-.54-.43c-.3 0-.53.13-.7.42l-.47-.28c.27-.44.67-.69 1.23-.69.65 0 1.09.4 1.09.94 0 .35-.19.61-.42.72.31.16.52.48.52.82 0 .58-.48 1.03-1.24 1.03-.57 0-.99-.26-1.23-.71Z"/><circle class="uuid-b0c72c98-d5af-4654-be99-390074411574" cx="170.55" cy="119.77" r="3.51"/><path class="uuid-00f6bf66-c491-484b-abc5-0c575967c33b" d="M168.07 120.84h.94v-2.08l-.84.19v-.6l1.46-.33v2.81h.86v.6h-2.42v-.6ZM170.69 120.23l.93-2.16h.64l-.91 2.08h.85v-.78h.62v.78h.49v.58h-.49v.7h-.62v-.7h-1.52v-.5Z"/><circle class="uuid-b0c72c98-d5af-4654-be99-390074411574" cx="184.18" cy="86.59" r="3.51"/><path class="uuid-00f6bf66-c491-484b-abc5-0c575967c33b" d="M181.69 87.65h.94v-2.08l-.84.19v-.6l1.46-.33v2.81h.86v.6h-2.42v-.6ZM184.37 87.62l.52-.32c.15.28.38.43.7.43.39 0 .64-.23.64-.59s-.23-.6-.65-.6c-.25 0-.45.1-.61.27l-.41-.27.33-1.65h1.8v.59h-1.33l-.12.63c.13-.06.27-.08.43-.08.74 0 1.18.48 1.18 1.13s-.47 1.17-1.28 1.17c-.53 0-.97-.25-1.2-.7Z"/><circle class="uuid-b0c72c98-d5af-4654-be99-390074411574" cx="167.28" cy="56.29" r="3.51"/><path class="uuid-00f6bf66-c491-484b-abc5-0c575967c33b" d="M164.8 57.36h.94v-2.08l-.84.19v-.6l1.46-.33v2.81h.86v.6h-2.42v-.6ZM167.47 56.82c0-.27.1-.54.28-.77l1.11-1.46h.76l-.82 1.05h.04c.62 0 1.17.49 1.17 1.2 0 .67-.54 1.19-1.26 1.19s-1.27-.55-1.27-1.21Zm1.9-.01c0-.35-.27-.63-.63-.63s-.65.28-.65.63.26.62.65.62.64-.28.64-.62Z"/><path class="uuid-f288007f-9cd8-42f1-8970-3bf3699c8607" transform="rotate(-25.85 30.38365588 56.78735635)" d="M24.63 56.42h11.53v.73H24.63z"/><path class="uuid-70de4a43-eb8c-4e97-8318-59f852999d9e" d="M42.16 50.74H32.02l-.03.03v8.76h10.17v-8.79Z"/><path class="uuid-cea1da8c-fd2b-4b1d-b85b-9fe1fdd3df4f" d="M33.69 56.26h1.17v-2.35h-1.17v-.83h3.24v.83h-1.18v2.35h1.18v.83h-3.24v-.83ZM37.55 56.26h1.49v-2.1c0-.07-.02-.13-.05-.17-.03-.04-.08-.06-.16-.06-.04 0-.08 0-.13.02-.05.01-.11.04-.17.06l-.89.29v-.83l.81-.29c.12-.04.23-.08.34-.1s.22-.04.32-.04c.17 0 .31.04.43.11s.22.18.28.32.09.29.09.47v2.33h1.32v.83h-3.7v-.83ZM122.49 72.11l-3.52-8.01"/><path class="uuid-f288007f-9cd8-42f1-8970-3bf3699c8607" transform="rotate(-23.72 120.73085444 68.11159603)" d="M120.37 63.73h.73v8.76h-.73z"/><path class="uuid-70de4a43-eb8c-4e97-8318-59f852999d9e" d="M127.38 71.85H116.4l-.03.03v8.7h11.02v-8.74Z"/><path class="uuid-cea1da8c-fd2b-4b1d-b85b-9fe1fdd3df4f" d="M119.61 74.62c.09-.19.23-.33.42-.42.19-.09.42-.14.71-.14h1.98v.83h-1.92c-.11 0-.2.01-.26.04s-.11.08-.14.14c-.03.06-.04.15-.04.26v.32h2.26v.83h-2.26v1.58h-.89v-2.73c0-.29.05-.52.14-.71ZM126.26 78.06h-1.67c-.29 0-.53-.05-.71-.14-.19-.09-.33-.23-.42-.42s-.14-.43-.14-.71v-2.73h.89v2.73c0 .11.01.2.04.26.03.07.07.11.14.14.07.03.15.04.26.04h1.61v.83Z"/><path class="uuid-5ea6dc31-e85b-4a5f-b67e-25c9b3612b75" d="M117.24 74.76h.88v5.83h-.88z"/><path d="M117.24 75.73h.88v.97h-.88zM117.24 77.67h.88v.97h-.88zM117.24 79.62h.88v.97h-.88z"/><path class="uuid-5ea6dc31-e85b-4a5f-b67e-25c9b3612b75" d="M116.36 74.76h.88v5.83h-.88z"/><path d="M116.36 74.76h.88v.97h-.88zM116.36 76.7h.88v.97h-.88zM116.36 78.64h.88v.97h-.88z"/><path class="uuid-5ea6dc31-e85b-4a5f-b67e-25c9b3612b75" d="M117.24 71.85h.88v2.91h-.88z"/><path d="M117.24 71.85h.88v.97h-.88zM117.24 73.79h.88v.97h-.88z"/><path class="uuid-5ea6dc31-e85b-4a5f-b67e-25c9b3612b75" d="M116.36 71.85h.88v2.91h-.88z"/><path d="M116.36 72.82h.88v.97h-.88z"/><path class="uuid-f288007f-9cd8-42f1-8970-3bf3699c8607" transform="rotate(-35.15 186.84093573 117.03780676)" d="M186.48 110.63h.73v12.82h-.73z"/><path class="uuid-70de4a43-eb8c-4e97-8318-59f852999d9e" d="M197.9 116.08h-10.94l-.03.03v8.96h10.97v-9Z"/><path class="uuid-cea1da8c-fd2b-4b1d-b85b-9fe1fdd3df4f" d="M188.62 121.6h1.17v-2.35h-1.17v-.83h3.24v.83h-1.18v2.35h1.18v.83h-3.24v-.83ZM193.05 122.28c-.21-.1-.38-.25-.49-.43-.11-.19-.17-.41-.17-.67v-.51h.9v.43c0 .16.05.28.14.37.09.09.22.13.38.13h1.03c.15 0 .26-.03.34-.1.08-.06.12-.16.12-.29 0-.12-.04-.21-.12-.28-.08-.06-.19-.09-.34-.09h-1.11v-.83h1.07c.14 0 .26-.03.34-.1.08-.06.12-.16.12-.29 0-.12-.04-.21-.12-.28-.08-.06-.19-.09-.34-.09h-1c-.16 0-.29.04-.38.13-.09.09-.14.21-.14.37v.26h-.89v-.34c0-.26.06-.48.17-.67s.27-.33.49-.43c.21-.1.47-.15.77-.15h1.01c.27 0 .5.04.7.13s.35.21.46.38c.11.17.16.36.16.59 0 .2-.04.38-.14.53-.09.15-.23.27-.42.37.21.1.37.22.46.37.09.14.14.32.14.54s-.05.42-.16.59c-.11.17-.27.29-.47.38-.2.09-.44.13-.71.13h-1.03c-.3 0-.56-.05-.77-.15Z"/><path class="uuid-cea1da8c-fd2b-4b1d-b85b-9fe1fdd3df4f" transform="rotate(-74.05 144.35507415 25.74777306)" d="M139.65 25.38h9.41v.73h-9.41z"/><path d="M150.21 16.6h-8.62l-.03.03v7.38h8.65V16.6Z" style="fill:#f6f6f6"/><path d="M143.91 21.64h2.69c.14 0 .25-.03.33-.09.08-.06.12-.15.12-.27 0-.11-.03-.19-.1-.24-.07-.06-.17-.11-.31-.15l-1.69-.45c-.39-.09-.67-.25-.86-.47-.18-.22-.28-.52-.28-.88 0-.26.06-.5.19-.71.13-.21.31-.37.54-.49.23-.12.51-.18.83-.18h2.58v1.02h-2.58c-.14 0-.26.03-.33.09-.08.06-.12.15-.12.27s.03.2.1.25c.06.06.17.11.31.15l1.68.44c.39.09.68.25.86.48s.28.52.28.88c0 .27-.06.51-.19.71-.13.21-.31.37-.54.49-.23.12-.51.18-.83.18h-2.69v-1.02Z" style="fill:#323232"/><path class="uuid-f288007f-9cd8-42f1-8970-3bf3699c8607" transform="rotate(-75.12 89.64342016 26.29518652)" d="M83.54 25.93h12.21v.73H83.54z"/><path class="uuid-70de4a43-eb8c-4e97-8318-59f852999d9e" d="M95.28 27.56H85.14l-.03.03v7.93h10.17v-7.96Z"/><path class="uuid-cea1da8c-fd2b-4b1d-b85b-9fe1fdd3df4f" d="M86.41 32.61h1.17v-2.35h-1.17v-.83h3.24v.83h-1.18v2.35h1.18v.83h-3.24v-.83ZM90.75 33.31c-.18-.09-.32-.21-.42-.36-.09-.16-.14-.34-.14-.55 0-.3.09-.54.27-.73.18-.19.48-.33.9-.41l1.27-.27c.12-.02.21-.05.28-.08.07-.03.11-.07.14-.12.03-.04.05-.11.05-.18 0-.11-.04-.2-.13-.25s-.22-.08-.41-.08h-.92c-.17 0-.3.04-.39.13-.09.09-.13.21-.13.37v.15h-.89v-.24c0-.26.06-.48.17-.67.11-.18.27-.33.49-.43.21-.1.47-.15.78-.15h.88c.47 0 .83.1 1.08.3s.37.49.37.86c0 .22-.04.41-.11.56-.07.15-.18.27-.33.37-.15.09-.34.16-.58.21l-1.5.3c-.13.03-.23.07-.29.12-.07.05-.1.12-.1.2s.03.15.09.2c.06.04.15.07.27.07h2.53v.83h-2.57c-.25 0-.47-.04-.65-.13Z"/></svg>