<svg xmlns="http://www.w3.org/2000/svg" id="uuid-50a647fe-717f-49c8-a36d-eace8d6c24c2" data-name="Capa 1" viewBox="0 0 210 151"><defs><style>.uuid-cad4f143-7ada-4b25-a517-c0762825dce6{fill:#444}.uuid-b9b44bab-b71b-4ad0-a794-06f0651131c2{fill:#e6e6e6}.uuid-df0bcfe8-1ea3-434b-8808-9889cd9970d4{fill:#c6c6c6}.uuid-b5544593-d3a1-4c2e-b274-783dfcdab6fe{fill:#fafafa}.uuid-f6c89924-e7ed-475a-935a-7c25f0a670cf{fill:red}.uuid-6b2f08dc-747a-4457-b304-d3874f70e977{fill:#ededed}</style></defs><path d="M20.54 18.81c-1.31-1.1-2.58-2-3.7-2.79-1.57-1.11-2.92-2.06-3.75-3.15-.93-1.23-1.16-2.65-.69-4.23 1.17-3.86 6.45-7.6 7.99-8.13C24-.74 26.74 2.93 28.75 5.62c.71.96 1.39 1.86 1.97 2.38l-.97 1.08c-.68-.62-1.4-1.58-2.16-2.59-1.93-2.58-4.12-5.51-6.72-4.61-1.17.41-6.06 3.82-7.08 7.18-.34 1.12-.19 2.08.45 2.93.69.91 1.96 1.81 3.43 2.85 1.15.81 2.45 1.73 3.8 2.87l-.94 1.11Z" style="fill:#606060"/><path d="M196.08 140.54c-.14 0-.29 0-.44-.01-.06 0-.44-.01-1.1-.03-3.33-.08-13.44-.34-25.96-.78-22.97-.81-52.77-2.19-64.26-4.22-.19-.03-19.6-3.65-32.12-10.23-7.12-3.74-13.08-14.91-15.63-19.68-2.37-4.45-4.01-7.21-5.33-8.2-.96-.72-1.79-.54-4.05.08-.21.06-.43.12-.66.18-2.59.69-4.42 1.05-6.19-.27-1.51-1.13-2.8-3.32-5.38-7.7-.39-.67-.81-1.38-1.27-2.15-1.05-1.77-1.95-3.36-2.82-4.91-3.05-5.41-5.26-9.32-9.67-12.68l-.27-.21C11.07 62.22 4.55 57.27 5.48 49.76c.69-5.62 3.68-7.92 6.05-8.86 4.11-1.63 9.69-.37 13.9 3.13 3.43 2.85 9.81 8.16 16.13 16.01 1.19 1.48 2.43 3.15 3.74 4.91 4.97 6.69 11.16 15.01 15.79 13.5 2.25-.74 3.75-2.06 4.47-3.94 1.24-3.22.2-8.13-2.85-13.47-3.71-6.5-10.49-13.16-14.98-17.58-.99-.97-1.85-1.81-2.56-2.55-4.9-5.01-20.05-18.37-24.2-21.93-.79-.68-2.13-2.13-2.2-4.24-.06-1.8.82-3.61 2.62-5.38 5.1-5.02 7.76-2.75 11.44.4.36.31.74.63 1.14.96.16.13 1.43 1.21 3.54 3 55.7 47.24 69.96 58.99 72.11 60.54.17.12.36.28.58.46 1.99 1.63 6.12 5.01 11.32-.24 4.09-4.13 11.55-1.48 18.13.86 1.96.7 3.81 1.35 5.48 1.81 3.04.83 25.65 7.87 29.16 9.58 1.94.94 3.52 3.18 4.03 5.7.6 2.98-.33 6.06-2.62 8.68-5.79 6.64-7.5 9.12-5.54 13.13 1.66 3.4 3.73 4.05 8.27 5.47 2.56.8 8.75 2.6 17.43 5.07.26.07.4.11.41.12.38.11.74.21 1.08.31 3.24.9 5.14 1.74 3.56 7.49l-.19.7c-1.6 5.83-1.96 7.12-4.64 7.12Zm-27.43-2.89c12.5.44 22.61.69 25.94.78.68.02 1.08.03 1.14.03 1.06.05 1.12-.04 1.32-.36.44-.71.91-2.41 1.68-5.23l.19-.7c.56-2.04.66-3.3.29-3.87-.31-.49-1.19-.73-2.41-1.07-.36-.1-.73-.2-1.13-.32-.01 0-.15-.04-.38-.11-8.7-2.47-14.91-4.28-17.49-5.09-4.65-1.46-7.46-2.34-9.51-6.54-2.62-5.35.05-8.77 5.84-15.4 2.38-2.73 2.48-5.26 2.15-6.91-.44-2.16-1.81-3.72-2.91-4.25-3.17-1.54-25.19-8.46-28.8-9.44-1.75-.48-3.64-1.15-5.63-1.86-6-2.13-12.8-4.55-15.97-1.35-6.53 6.59-12.23 1.92-14.1.38-.19-.16-.36-.3-.47-.38-3.18-2.28-27.48-22.68-72.24-60.64-2.11-1.79-3.38-2.87-3.53-2.99-.4-.34-.79-.67-1.15-.98-3.67-3.13-4.9-4.19-8.64-.5-1.37 1.35-2.04 2.64-2 3.83.05 1.32.94 2.28 1.48 2.74 4.16 3.57 19.39 16.99 24.33 22.05.7.72 1.55 1.55 2.53 2.52 4.57 4.49 11.48 11.28 15.33 18.03 3.41 5.97 4.47 11.38 2.98 15.24-.96 2.48-2.89 4.22-5.76 5.16-.6.2-1.2.29-1.81.29-5.5 0-11.21-7.67-16.3-14.52-1.3-1.75-2.52-3.4-3.69-4.85-6.19-7.69-12.47-12.91-15.84-15.72-3.64-3.03-8.39-4.15-11.81-2.79-2.66 1.06-4.31 3.54-4.76 7.19-.78 6.33 5.03 10.75 14.65 18.07l.27.21c4.76 3.62 7.05 7.69 10.22 13.31.86 1.53 1.76 3.12 2.8 4.87.46.77.88 1.49 1.27 2.15 2.36 4.01 3.66 6.21 4.84 7.09.93.7 1.92.59 4.41-.07.23-.06.44-.12.65-.18 2.33-.64 4.02-1.09 5.83.26 1.65 1.23 3.29 3.96 5.92 8.89 2.46 4.6 8.21 15.38 14.77 18.83 12.25 6.43 31.33 9.99 31.52 10.03 11.37 2.01 41.07 3.39 63.98 4.19Z" style="fill:#a0a0a0"/><circle class="uuid-cad4f143-7ada-4b25-a517-c0762825dce6" cx="85.38" cy="136.51" r="3.55"/><path class="uuid-df0bcfe8-1ea3-434b-8808-9889cd9970d4" d="M84.27 137.59h.95v-2.11l-.85.19v-.61l1.48-.33v2.85h.87v.61h-2.45v-.61Z"/><circle class="uuid-cad4f143-7ada-4b25-a517-c0762825dce6" cx="62.86" cy="125.08" r="3.55"/><path class="uuid-df0bcfe8-1ea3-434b-8808-9889cd9970d4" d="M63.43 124.32c0-.24-.18-.43-.5-.43s-.56.18-.74.48l-.52-.33c.26-.48.69-.76 1.25-.76.68 0 1.12.41 1.12 1 0 1.04-1.12 1.13-1.52 1.89h1.58v.59h-2.4v-.47c.53-1.19 1.71-1.33 1.71-1.97Z"/><circle class="uuid-cad4f143-7ada-4b25-a517-c0762825dce6" cx="53.18" cy="89.7" r="3.55"/><path class="uuid-df0bcfe8-1ea3-434b-8808-9889cd9970d4" d="m51.95 90.74.48-.28c.17.29.4.44.76.44s.65-.21.65-.53c0-.3-.25-.53-.57-.53h-.41v-.52h.41c.3 0 .47-.17.47-.43s-.2-.43-.54-.43c-.31 0-.54.14-.71.42l-.48-.28c.27-.45.68-.69 1.24-.69.65 0 1.11.41 1.11.95 0 .35-.2.62-.42.73.32.16.53.48.53.83 0 .58-.49 1.04-1.26 1.04-.57 0-1-.26-1.25-.72Z"/><circle class="uuid-cad4f143-7ada-4b25-a517-c0762825dce6" cx="38.93" cy="103.11" r="3.55"/><path class="uuid-df0bcfe8-1ea3-434b-8808-9889cd9970d4" d="m37.67 103.57.94-2.18h.65l-.92 2.11h.86v-.79h.63v.79h.5v.59h-.5v.71h-.63v-.71h-1.54v-.51Z"/><circle class="uuid-cad4f143-7ada-4b25-a517-c0762825dce6" cx="21.34" cy="77.97" r="3.55"/><path class="uuid-df0bcfe8-1ea3-434b-8808-9889cd9970d4" d="m20.13 79.02.53-.33c.15.28.38.43.71.43.39 0 .65-.23.65-.6s-.24-.61-.66-.61c-.26 0-.46.1-.62.27l-.42-.27.33-1.67h1.82v.6h-1.34l-.13.64c.14-.06.27-.08.44-.08.75 0 1.2.48 1.2 1.14s-.48 1.18-1.29 1.18c-.54 0-.98-.25-1.21-.71Z"/><circle class="uuid-cad4f143-7ada-4b25-a517-c0762825dce6" cx="3.55" cy="39.87" r="3.55"/><path class="uuid-df0bcfe8-1ea3-434b-8808-9889cd9970d4" d="M2.34 40.4c0-.27.11-.54.28-.78l1.12-1.47h.77l-.83 1.06h.04c.63 0 1.18.5 1.18 1.21 0 .67-.54 1.21-1.27 1.21s-1.29-.55-1.29-1.23Zm1.92-.01c0-.36-.27-.64-.64-.64s-.66.28-.66.64.26.63.65.63.65-.28.65-.63Z"/><circle class="uuid-cad4f143-7ada-4b25-a517-c0762825dce6" cx="67.18" cy="84.16" r="3.55"/><path class="uuid-df0bcfe8-1ea3-434b-8808-9889cd9970d4" d="M67.72 83.05h-1.74v-.61h2.44v.51l-1.39 2.9h-.67l1.37-2.8Z"/><circle class="uuid-cad4f143-7ada-4b25-a517-c0762825dce6" cx="117.29" cy="84.99" r="3.55"/><path class="uuid-df0bcfe8-1ea3-434b-8808-9889cd9970d4" d="M118.63 84.42c0 .27-.11.54-.28.78l-1.12 1.47h-.77l.83-1.06h-.04c-.63 0-1.18-.5-1.18-1.21 0-.67.54-1.21 1.27-1.21s1.28.55 1.28 1.23Zm-1.93.01c0 .36.27.64.64.64s.66-.28.66-.64-.26-.63-.65-.63-.65.28-.65.63Z"/><circle class="uuid-cad4f143-7ada-4b25-a517-c0762825dce6" cx="127.33" cy="66.62" r="3.55"/><path class="uuid-df0bcfe8-1ea3-434b-8808-9889cd9970d4" d="M124.81 67.7h.95v-2.11l-.85.19v-.61l1.48-.33v2.85h.87v.61h-2.45v-.61ZM127.54 67.13v-1.06c0-.75.55-1.25 1.25-1.25s1.25.5 1.25 1.25v1.06c0 .75-.54 1.25-1.25 1.25s-1.25-.5-1.25-1.25Zm1.87-.02V66.1c0-.41-.24-.67-.62-.67s-.62.26-.62.67v1.01c0 .41.24.66.62.66s.62-.25.62-.66Z"/><circle class="uuid-cad4f143-7ada-4b25-a517-c0762825dce6" cx="184.04" cy="93.25" r="3.55"/><path class="uuid-df0bcfe8-1ea3-434b-8808-9889cd9970d4" d="M181.53 94.33h.95v-2.11l-.85.19v-.61l1.48-.33v2.85h.87v.61h-2.45v-.61ZM184.33 94.33h.95v-2.11l-.85.19v-.61l1.48-.33v2.85h.87v.61h-2.45v-.61Z"/><circle class="uuid-cad4f143-7ada-4b25-a517-c0762825dce6" cx="176.09" cy="112.85" r="3.55"/><path class="uuid-df0bcfe8-1ea3-434b-8808-9889cd9970d4" d="M173.58 113.93h.95v-2.11l-.85.19v-.61l1.48-.33v2.85h.87v.61h-2.45v-.61ZM178.06 112.09c0-.24-.18-.43-.5-.43s-.56.18-.74.48l-.52-.33c.26-.48.69-.76 1.25-.76.68 0 1.12.41 1.12 1 0 1.04-1.12 1.13-1.52 1.89h1.58v.59h-2.4v-.47c.53-1.19 1.71-1.33 1.71-1.97Z"/><circle class="uuid-cad4f143-7ada-4b25-a517-c0762825dce6" cx="206.45" cy="125.32" r="3.55"/><path class="uuid-df0bcfe8-1ea3-434b-8808-9889cd9970d4" d="M203.94 126.4h.95v-2.11l-.85.19v-.61l1.48-.33v2.85h.87v.61h-2.45v-.61ZM206.62 126.36l.48-.28c.17.29.4.44.76.44s.65-.21.65-.53c0-.3-.25-.53-.57-.53h-.41v-.52h.41c.3 0 .47-.17.47-.43s-.2-.43-.54-.43c-.31 0-.54.14-.71.42l-.48-.28c.27-.45.68-.69 1.24-.69.65 0 1.11.41 1.11.95 0 .35-.2.62-.42.73.32.16.53.48.53.83 0 .58-.49 1.04-1.26 1.04-.57 0-1-.26-1.25-.72Z"/><circle class="uuid-cad4f143-7ada-4b25-a517-c0762825dce6" cx="202.12" cy="144.08" r="3.55"/><path class="uuid-df0bcfe8-1ea3-434b-8808-9889cd9970d4" d="M199.6 145.16h.95v-2.11l-.85.19v-.61l1.48-.33v2.85h.87v.61h-2.45v-.61ZM202.26 144.55l.94-2.18h.65l-.92 2.11h.86v-.79h.63v.79h.5v.59h-.5v.71h-.63v-.71h-1.54v-.51Z"/><path class="uuid-6b2f08dc-747a-4457-b304-d3874f70e977" transform="rotate(-84.33 110.52994909 136.50760292)" d="M105.83 136.14h9.41v.73h-9.41z"/><path d="M113.99 139.92h-8.62l-.03.03v7.38h8.65v-7.41Z" style="fill:#f6f6f6"/><path d="M107.69 144.96h2.69c.14 0 .25-.03.33-.09.08-.06.12-.15.12-.27 0-.11-.03-.19-.1-.24-.07-.06-.17-.11-.31-.15l-1.69-.45c-.39-.09-.67-.25-.86-.47s-.28-.52-.28-.88c0-.27.06-.5.19-.71.13-.21.31-.37.54-.49s.51-.18.83-.18h2.58v1.02h-2.58c-.14 0-.26.03-.33.09-.08.06-.12.15-.12.27s.03.2.1.25c.06.06.17.11.31.15l1.68.44c.39.1.68.25.86.48s.28.52.28.88c0 .27-.06.51-.19.71-.13.21-.31.37-.54.49-.23.12-.51.18-.83.18h-2.69v-1.02Z" style="fill:#323232"/><path class="uuid-6b2f08dc-747a-4457-b304-d3874f70e977" d="m168.75 144.39.02-8.76"/><path class="uuid-b9b44bab-b71b-4ad0-a794-06f0651131c2" transform="matrix(.00262 -1 1 .00262 28.31 308.4)" d="M164.38 139.64h8.76v.73h-8.76z"/><path class="uuid-f6c89924-e7ed-475a-935a-7c25f0a670cf" d="M173.25 141.84h-10.98l-.03.03v8.7h11.02v-8.74Z"/><path class="uuid-6b2f08dc-747a-4457-b304-d3874f70e977" d="M165.48 144.61c.09-.19.23-.33.42-.42.19-.09.42-.14.71-.14h1.98v.83h-1.92c-.11 0-.2.01-.26.04s-.11.08-.14.14c-.03.06-.04.15-.04.26v.32h2.26v.83h-2.26v1.58h-.89v-2.73c0-.29.05-.52.14-.71ZM172.14 148.05h-1.67c-.29 0-.53-.05-.71-.14-.19-.09-.33-.23-.42-.42s-.14-.43-.14-.71v-2.73h.89v2.73c0 .11.01.2.04.26.03.07.07.11.14.14.07.03.15.04.26.04h1.61v.83Z"/><path class="uuid-b5544593-d3a1-4c2e-b274-783dfcdab6fe" d="M163.11 144.75h.88v5.83h-.88z"/><path d="M163.11 145.72h.88v.97h-.88zM163.11 147.66h.88v.97h-.88zM163.11 149.61h.88v.97h-.88z"/><path class="uuid-b5544593-d3a1-4c2e-b274-783dfcdab6fe" d="M162.24 144.75h.88v5.83h-.88z"/><path d="M162.24 144.75h.88v.97h-.88zM162.24 146.69h.88v.97h-.88zM162.24 148.63h.88v.97h-.88z"/><path class="uuid-b5544593-d3a1-4c2e-b274-783dfcdab6fe" d="M163.11 141.84h.88v2.91h-.88z"/><path d="M163.11 141.84h.88v.97h-.88zM163.11 143.78h.88v.97h-.88z"/><path class="uuid-b5544593-d3a1-4c2e-b274-783dfcdab6fe" d="M162.24 141.84h.88v2.91h-.88z"/><path d="M162.24 142.81h.88v.97h-.88z"/><path class="uuid-b9b44bab-b71b-4ad0-a794-06f0651131c2" transform="rotate(-71.69 138.43303294 72.61986202)" d="M132.03 72.25h12.82v.73h-12.82z"/><path class="uuid-f6c89924-e7ed-475a-935a-7c25f0a670cf" d="M146.04 62.69H135.1l-.03.03v8.96h10.97v-9Z"/><path class="uuid-6b2f08dc-747a-4457-b304-d3874f70e977" d="M136.76 68.21h1.17v-2.35h-1.17v-.83H140v.83h-1.18v2.35H140v.83h-3.24v-.83ZM141.19 68.88c-.21-.1-.38-.25-.49-.43-.11-.19-.17-.41-.17-.67v-.51h.9v.43c0 .16.05.28.14.37.09.09.22.13.38.13h1.03c.15 0 .26-.03.34-.1.08-.06.12-.16.12-.29 0-.12-.04-.21-.12-.28-.08-.06-.19-.09-.34-.09h-1.11v-.83h1.07c.14 0 .26-.03.34-.1.08-.06.12-.16.12-.29 0-.12-.04-.21-.12-.28-.08-.06-.19-.09-.34-.09h-1c-.16 0-.29.04-.38.13-.09.09-.14.21-.14.37v.26h-.89v-.34c0-.26.06-.48.17-.67s.27-.33.49-.43c.21-.1.47-.15.77-.15h1.01c.27 0 .5.04.7.13s.35.21.46.38c.11.17.16.36.16.59 0 .2-.04.38-.14.53-.09.15-.23.27-.42.37.21.1.37.22.46.37.09.14.14.32.14.54s-.05.42-.16.59c-.11.17-.27.29-.47.38-.2.09-.44.13-.71.13h-1.03c-.3 0-.56-.05-.77-.15Z"/><path class="uuid-b9b44bab-b71b-4ad0-a794-06f0651131c2" transform="rotate(-46.47 54.60883688 52.7132807)" d="M48.51 52.35h12.21v.73H48.51z"/><path class="uuid-f6c89924-e7ed-475a-935a-7c25f0a670cf" d="M57.04 54.66H46.9l-.03.03v7.93h10.17v-7.96Z"/><path class="uuid-6b2f08dc-747a-4457-b304-d3874f70e977" d="M48.17 59.71h1.17v-2.35h-1.17v-.83h3.24v.83h-1.18v2.35h1.18v.83h-3.24v-.83ZM52.51 60.41c-.18-.09-.32-.21-.42-.36-.09-.16-.14-.34-.14-.55 0-.3.09-.54.27-.73.18-.19.48-.33.9-.41l1.27-.27c.12-.02.21-.05.28-.08.07-.03.11-.07.14-.12.03-.04.05-.11.05-.18 0-.11-.04-.2-.13-.25s-.22-.08-.41-.08h-.92c-.17 0-.3.04-.39.13-.09.09-.13.21-.13.37v.15h-.89v-.24c0-.26.06-.48.17-.67.11-.18.27-.33.49-.43.21-.1.47-.15.78-.15h.88c.47 0 .83.1 1.08.3s.37.49.37.86c0 .22-.04.41-.11.56-.07.15-.18.27-.33.37-.15.09-.34.16-.58.21l-1.5.3c-.13.03-.23.07-.29.12-.07.05-.1.12-.1.2s.03.15.09.2c.06.04.15.07.27.07h2.53v.83h-2.57c-.25 0-.47-.04-.65-.13Z"/><path class="uuid-b9b44bab-b71b-4ad0-a794-06f0651131c2" d="m22.14 63.81-8.21 13.41-.56-.48 8.21-13.41.56.48z"/><path class="uuid-f6c89924-e7ed-475a-935a-7c25f0a670cf" d="M15.84 73.65H5.7l-.03.03v8.76h10.17v-8.79Z"/><path class="uuid-6b2f08dc-747a-4457-b304-d3874f70e977" d="M7.37 79.17h1.17v-2.35H7.37v-.83h3.24v.83H9.43v2.35h1.18V80H7.37v-.83ZM11.22 79.17h1.49v-2.1c0-.07-.02-.13-.05-.17-.03-.04-.08-.06-.16-.06-.04 0-.08 0-.13.02-.05.01-.11.04-.17.06l-.89.29v-.83l.81-.29c.12-.04.23-.08.34-.1s.22-.04.32-.04c.17 0 .31.04.43.11s.22.18.28.32.09.29.09.47v2.33h1.32v.83h-3.7v-.83Z"/></svg>