<svg xmlns="http://www.w3.org/2000/svg" id="uuid-a1af98c4-cf8b-4e42-88b0-e50d53d41bd3" data-name="Capa 1" viewBox="0 0 210 158"><defs><style>.uuid-2d34e1d0-09cf-4d4e-983f-643a583a56f1{fill:#444}.uuid-4732b129-ab54-4a71-a2f8-9186b659ce0f{fill:#e6e6e6}.uuid-3bf045bb-447f-47af-adae-4e440644325d{fill:#c6c6c6}.uuid-ac8ecd70-1d48-4cee-8a14-ca7cca8bf4c5{fill:#fafafa}.uuid-2a577272-cd5a-41b6-b632-3c4e8ef3c295{fill:red}.uuid-50b41efa-7574-4d59-9329-a54ac3d4f2ba{fill:#ededed}</style></defs><path d="M53.2 70.68c-1.71 0-3.36-.7-4.7-2.04-1.71-1.7-2.97-8.12-4.32-15.71-.45-2.52-.84-4.7-1.13-5.7l1.33-.39c.32 1.07.69 3.18 1.17 5.85.95 5.35 2.39 13.44 3.93 14.97 1.43 1.43 3.29 1.95 5.1 1.44 1.69-.48 3.01-1.75 3.37-3.24.71-2.94 1.06-9.6 1.06-19.77v-.27h1.39v.27c0 3.83 0 15.5-1.1 20.1-.47 1.97-2.18 3.64-4.34 4.25-.59.17-1.18.25-1.76.25Z" style="fill:#606060"/><path d="M33.88 146.43c-4.68 0-8.88-3.97-9.37-8.86-.72-7.25 4.44-9.94 8.58-12.1.68-.35 1.32-.69 1.93-1.03 5.99-3.39 10.51-5.98 15.12-8.66 2.52-1.47 4.2-4.28 4.19-7.01-.01-2.76-1.7-5.17-4.86-6.97-2.61-1.48-5.43-2.82-8.15-4.11-3.7-1.75-7.2-3.41-9.8-5.26-2.13-1.51-4.31-3.3-5.46-7.02l-8.12-23.6-6.53-18.75c-.1-.26-1-2.65-1.15-5.44-.22-4.05 1.24-6.92 4.22-8.32 6.2-2.9 13.47-4.92 14.05-5.08.4-.13 3.7-1.13 6.78.39 1.97.97 3.39 2.74 4.23 5.25 2.48 7.43 8.59 27.35 8.65 27.55v.05c.31 1.18 1.52 4.32 3.57 4.73 1.41.28 2.46.15 3.2-.38.97-.69 1.61-2.2 1.91-4.48.6-4.52 3.73-28.5 4.67-35.73.03-.23.17-1.31.34-2.75v-.03c.71-5.93 4.06-9.23 9.42-9.28h.11c6.51 0 9.35 5.7 10.01 9.08 1.31 6.76 3.48 12.41 5.94 15.5 2.74 3.44 5.28 5.57 7.31 7.28 3.29 2.77 5.67 4.77 5.47 9.54-.07 1.64-1.17 5.43-2.5 9.83-.25.83-.48 1.59-.66 2.21-.45 1.56-.77 2.63-1.02 3.48-.4 1.36-.64 2.17-1.03 3.61-1.27 4.73-.84 7.36 1.48 9.08 2.21 1.63 5.22.9 7.42.37l.42-.1c5.73-1.36 10.93-3.66 15.45-6.83 6.96-4.89 12.37-11.84 16.08-20.66 1.99-4.73 4.07-10.17 5.91-14.96 2.53-6.6 4.53-11.82 5.67-13.72 2.66-4.45 6.82-7.14 11.11-7.22 6.87-.12 8.7-.09 11.03-.07 1.19.01 2.54.03 4.78.03 4.11 0 7.33 2.01 9.3 5.82 1.34 2.58 4.78 8.67 7.3 13.11.83 1.47 1.56 2.76 2.09 3.69 1.36 2.42 1.7 5.31.92 7.94-.77 2.62-6.04 8.65-7.08 9.83-5.53 6.24-15.11 18.1-17.91 21.59-1.47 1.83-2.03 4.15-1.54 6.38.27 1.23.82 2.46 1.63 3.67 1.38 2.06 4.05 6.11 7.14 10.8 7.14 10.83 16.91 25.67 20.02 29.91 2.27 3.09 2.86 4.88 3.11 6.91.19 1.55.18 4.53-2.05 7.03-2.15 2.4-5.71 3.62-10.59 3.62h-.39c-3.04-.04-10.74-.03-20.49 0-4.79 0-10.12.02-15.72.02-8.02 0-23.53.04-37.21.07l-14.49.03c-7.96.02-12.03.02-13.19.02-17.94-.04-33.9-.01-43.44 0h-7.82ZM31.53 25.77c-1.36 0-2.39.34-2.41.35l-.06.02c-.08.02-7.59 2.09-13.75 4.97-5.4 2.53-2.09 11.17-2.05 11.25v.04l6.55 18.77 8.14 23.65c.96 3.14 2.7 4.58 4.71 6.01 2.46 1.75 5.88 3.37 9.51 5.08 2.76 1.31 5.61 2.66 8.28 4.17 3.77 2.14 5.85 5.22 5.87 8.68.02 3.41-2.06 6.92-5.18 8.73-4.62 2.68-9.14 5.28-15.14 8.67-.64.36-1.33.72-1.99 1.07-4.17 2.18-8.12 4.23-7.53 10.14.39 3.9 3.71 7.08 7.4 7.08h7.82c9.54-.01 25.5-.04 43.44 0 1.16 0 5.22 0 13.18-.02l14.49-.03c13.68-.03 29.18-.06 37.21-.07 5.6 0 10.93-.01 15.72-.02 9.75-.02 17.46-.03 20.52 0 4.49.06 7.67-.94 9.48-2.96 1.71-1.91 1.72-4.24 1.56-5.46-.18-1.48-.51-2.94-2.74-5.98-3.14-4.28-12.93-19.14-20.08-30-3.09-4.69-5.76-8.74-7.13-10.79-.95-1.41-1.6-2.88-1.92-4.35-.62-2.82.09-5.75 1.93-8.05 2.81-3.49 12.41-15.38 17.97-21.66 2.88-3.25 6.2-7.48 6.67-9.07.62-2.12.35-4.46-.75-6.41-.53-.93-1.26-2.22-2.08-3.69-2.52-4.46-5.98-10.56-7.34-13.18-1.63-3.15-4.17-4.75-7.54-4.75-2.25 0-3.6-.02-4.8-.03-2.31-.03-4.14-.05-10.97.07-3.6.06-7.14 2.4-9.45 6.26-1.05 1.76-3.12 7.16-5.52 13.42-1.84 4.81-3.93 10.26-5.94 15.02-3.86 9.17-9.5 16.41-16.77 21.51-4.73 3.32-10.16 5.72-16.13 7.14l-.41.1c-2.43.59-6.11 1.48-9.06-.7-3.84-2.84-3.28-7.25-2.22-11.18.39-1.46.64-2.28 1.04-3.65.25-.85.57-1.91 1.02-3.47.18-.63.41-1.4.67-2.23.94-3.11 2.35-7.81 2.41-9.34.16-3.8-1.59-5.27-4.77-7.95-2.1-1.77-4.72-3.98-7.59-7.56-2.66-3.33-4.97-9.29-6.34-16.35-.06-.31-1.55-7.54-8.16-7.48-5.44.05-7.07 4.13-7.47 7.54v.03c-.19 1.56-.32 2.6-.34 2.77-.94 7.24-4.07 31.21-4.68 35.74-.38 2.88-1.27 4.79-2.72 5.83-1.22.87-2.77 1.11-4.74.72-3.61-.71-4.96-5.68-5.09-6.17-.25-.8-6.2-20.19-8.63-27.48-.66-1.98-1.74-3.36-3.21-4.09-.98-.49-2.01-.63-2.9-.63Z" style="fill:#a0a0a0"/><circle class="uuid-2d34e1d0-09cf-4d4e-983f-643a583a56f1" cx="19.78" cy="141.32" r="3.39"/><path class="uuid-3bf045bb-447f-47af-adae-4e440644325d" d="M18.72 142.35h.9v-2.01l-.81.19v-.58l1.41-.32v2.72h.83v.58h-2.34v-.58Z"/><circle class="uuid-2d34e1d0-09cf-4d4e-983f-643a583a56f1" cx="48.57" cy="109.85" r="3.39"/><path class="uuid-3bf045bb-447f-47af-adae-4e440644325d" d="M47.92 110.35c.17-.17.38-.34.63-.52.2-.14.34-.26.43-.36.09-.1.14-.21.14-.34 0-.12-.04-.22-.12-.29-.08-.08-.2-.11-.35-.11s-.28.04-.4.12c-.12.08-.22.19-.3.34l-.49-.31c.12-.23.29-.41.49-.54.2-.13.44-.19.7-.19.21 0 .4.04.56.12.16.08.28.19.37.34.09.14.13.31.13.49s-.03.34-.1.48c-.07.13-.15.25-.26.34-.1.09-.24.2-.4.31-.18.13-.32.24-.42.33-.11.09-.19.21-.26.34h1.51v.57h-2.29v-.45c.12-.26.26-.48.43-.65Z"/><circle class="uuid-2d34e1d0-09cf-4d4e-983f-643a583a56f1" cx="24.48" cy="93.41" r="3.39"/><path class="uuid-3bf045bb-447f-47af-adae-4e440644325d" d="M23.78 94.91c-.2-.12-.36-.29-.48-.5l.46-.27c.08.14.18.25.3.32s.26.11.42.11c.18 0 .32-.05.44-.14.12-.09.18-.21.18-.36 0-.14-.05-.26-.16-.36-.11-.1-.24-.15-.39-.15h-.39v-.49h.39c.14 0 .25-.04.33-.11.08-.07.12-.17.12-.3s-.05-.22-.14-.3-.22-.11-.38-.11c-.29 0-.51.13-.68.4l-.46-.27c.26-.44.66-.66 1.19-.66.2 0 .39.04.55.12.16.08.29.19.37.32.09.14.13.29.13.47 0 .16-.04.3-.12.43s-.17.21-.29.27c.15.08.27.19.36.33.09.14.14.3.14.46 0 .19-.05.36-.15.5-.1.15-.24.27-.42.35-.18.09-.39.13-.63.13-.27 0-.51-.06-.71-.18Z"/><circle class="uuid-2d34e1d0-09cf-4d4e-983f-643a583a56f1" cx="5.89" cy="30.85" r="3.39"/><path class="uuid-3bf045bb-447f-47af-adae-4e440644325d" d="m4.69 31.29.9-2.08h.62l-.87 2.01h.82v-.75h.6v.75h.47v.56h-.47v.68h-.6v-.68H4.69v-.49Z"/><circle class="uuid-2d34e1d0-09cf-4d4e-983f-643a583a56f1" cx="39.85" cy="21.01" r="3.39"/><path class="uuid-3bf045bb-447f-47af-adae-4e440644325d" d="M39.16 22.51c-.2-.12-.36-.28-.47-.5l.5-.31c.15.27.37.41.68.41.19 0 .34-.05.45-.15.11-.1.17-.24.17-.42s-.06-.31-.17-.42-.26-.16-.46-.16c-.23 0-.43.09-.59.26l-.4-.26.32-1.6h1.74v.57h-1.28l-.12.61c.13-.05.27-.08.42-.08.23 0 .44.05.61.14s.3.22.39.39c.09.16.14.35.14.56s-.05.4-.15.57-.24.31-.43.4-.41.15-.66.15-.49-.06-.69-.18Z"/><circle class="uuid-2d34e1d0-09cf-4d4e-983f-643a583a56f1" cx="52.17" cy="51.9" r="3.39"/><path class="uuid-3bf045bb-447f-47af-adae-4e440644325d" d="M51.62 53.41c-.19-.11-.33-.25-.44-.43-.11-.18-.16-.37-.16-.58 0-.26.09-.51.27-.74l1.07-1.41h.73l-.79 1.01h.04c.2 0 .39.05.56.15.17.1.31.24.41.41.1.18.15.37.15.59s-.05.4-.16.58-.25.32-.44.42c-.19.1-.39.15-.62.15s-.43-.05-.62-.16Zm1.06-.59c.11-.12.17-.26.17-.43s-.06-.31-.17-.43c-.12-.12-.26-.18-.44-.18s-.33.06-.45.18-.18.26-.18.43.06.31.17.42.27.17.45.17.33-.06.45-.17Z"/><circle class="uuid-2d34e1d0-09cf-4d4e-983f-643a583a56f1" cx="72.17" cy="4.12" r="3.39"/><path class="uuid-3bf045bb-447f-47af-adae-4e440644325d" d="M72.68 3.05h-1.66v-.58h2.33v.49l-1.33 2.76h-.64l1.31-2.67Z"/><circle class="uuid-2d34e1d0-09cf-4d4e-983f-643a583a56f1" cx="91.38" cy="30.32" r="3.39"/><path class="uuid-3bf045bb-447f-47af-adae-4e440644325d" d="M90.84 31.87c-.18-.09-.31-.21-.41-.36-.1-.15-.15-.32-.15-.5 0-.16.04-.32.13-.46s.2-.25.35-.34c-.1-.05-.19-.14-.26-.27-.08-.13-.11-.27-.11-.43 0-.17.04-.32.13-.46.09-.13.21-.24.38-.32.16-.08.34-.12.55-.12s.39.04.55.12.29.18.37.32c.09.14.13.29.13.46 0 .16-.04.3-.11.43s-.16.21-.27.27c.14.08.26.19.35.33.09.14.13.3.13.46 0 .18-.05.35-.15.5-.1.15-.23.27-.41.36s-.38.13-.6.13-.42-.04-.6-.13Zm1-.53c.1-.09.16-.22.16-.37s-.05-.27-.16-.37c-.11-.1-.24-.15-.4-.15s-.29.05-.4.15-.16.22-.16.36c0 .15.05.28.16.37s.24.14.4.14.3-.05.4-.14Zm-.06-1.48c.08-.08.13-.18.13-.3s-.04-.22-.13-.3c-.08-.08-.2-.11-.35-.11s-.26.04-.35.11c-.08.08-.12.17-.12.3s.04.23.12.3c.08.08.2.11.35.11s.26-.04.35-.11Z"/><circle class="uuid-2d34e1d0-09cf-4d4e-983f-643a583a56f1" cx="105.41" cy="47.66" r="3.39"/><path class="uuid-3bf045bb-447f-47af-adae-4e440644325d" d="M106.08 46.1c.19.11.33.25.44.43.11.18.16.37.16.59 0 .26-.09.5-.27.74l-1.07 1.41h-.73l.79-1.01h-.04c-.2 0-.39-.05-.56-.15s-.31-.24-.41-.41c-.1-.18-.15-.37-.15-.59s.05-.4.16-.58.25-.31.44-.42.39-.15.62-.15.44.05.62.16Zm-1.07.6c-.11.12-.17.26-.17.43s.06.31.17.43.26.18.44.18.33-.06.45-.18.18-.26.18-.43-.06-.31-.17-.42c-.12-.12-.27-.17-.45-.17s-.33.06-.45.17Z"/><circle class="uuid-2d34e1d0-09cf-4d4e-983f-643a583a56f1" cx="99.67" cy="74.59" r="3.39"/><path class="uuid-3bf045bb-447f-47af-adae-4e440644325d" d="M97.27 75.62h.9v-2.01l-.81.19v-.58l1.41-.32v2.72h.83v.58h-2.34v-.58ZM100.47 76.12c-.18-.1-.33-.24-.43-.42-.1-.18-.16-.39-.16-.62v-1.01c0-.23.05-.44.16-.62.1-.18.25-.32.43-.42.18-.1.38-.15.6-.15s.43.05.61.15.32.24.43.42c.1.18.16.39.16.62v1.01c0 .23-.05.44-.16.62-.1.18-.25.32-.43.42s-.38.15-.61.15-.42-.05-.6-.15Zm1.04-.6c.11-.11.16-.27.16-.46v-.96c0-.2-.05-.35-.16-.47-.11-.11-.25-.17-.43-.17s-.33.06-.43.17c-.11.11-.16.27-.16.47v.96c0 .19.05.35.16.46.11.11.25.17.43.17s.33-.06.43-.17Z"/><circle class="uuid-2d34e1d0-09cf-4d4e-983f-643a583a56f1" cx="120.37" cy="65.09" r="3.39"/><path class="uuid-3bf045bb-447f-47af-adae-4e440644325d" d="M117.97 66.12h.9v-2.01l-.81.19v-.58l1.41-.32v2.72h.83v.58h-2.34v-.58ZM120.64 66.12h.9v-2.01l-.81.19v-.58l1.41-.32v2.72h.83v.58h-2.34v-.58Z"/><circle class="uuid-2d34e1d0-09cf-4d4e-983f-643a583a56f1" cx="146.57" cy="15.58" r="3.39"/><path class="uuid-3bf045bb-447f-47af-adae-4e440644325d" d="M144.17 16.61h.9V14.6l-.81.19v-.58l1.41-.32v2.72h.83v.58h-2.34v-.58ZM147.26 16.08c.17-.17.38-.34.63-.52.2-.14.34-.26.43-.36.09-.1.14-.21.14-.34 0-.12-.04-.22-.12-.29-.08-.08-.2-.11-.35-.11s-.28.04-.4.12c-.12.08-.22.19-.3.34l-.49-.31c.12-.23.29-.41.49-.54.2-.13.44-.19.7-.19.21 0 .4.04.56.12.16.08.28.19.37.34.09.14.13.31.13.49s-.03.34-.1.48c-.07.13-.15.25-.26.34-.1.09-.24.2-.4.31-.18.13-.32.24-.42.33-.11.09-.19.21-.26.34h1.51v.57h-2.29v-.45c.12-.26.26-.48.43-.65Z"/><circle class="uuid-2d34e1d0-09cf-4d4e-983f-643a583a56f1" cx="181.88" cy="12.19" r="3.39"/><path class="uuid-3bf045bb-447f-47af-adae-4e440644325d" d="M179.47 13.22h.9v-2.01l-.81.19v-.58l1.41-.32v2.72h.83v.58h-2.34v-.58ZM182.51 13.69c-.2-.12-.36-.29-.48-.5l.46-.27c.08.14.18.25.3.32s.26.11.42.11c.18 0 .32-.05.44-.14.12-.09.18-.21.18-.36 0-.14-.05-.26-.16-.36-.11-.1-.24-.15-.39-.15h-.39v-.49h.39c.14 0 .25-.04.33-.11.08-.07.12-.17.12-.3s-.05-.22-.14-.3-.22-.11-.38-.11c-.29 0-.51.13-.68.4l-.46-.27c.26-.44.66-.66 1.19-.66.2 0 .39.04.55.12.16.08.29.19.37.32.09.14.13.29.13.47 0 .16-.04.3-.12.43s-.17.21-.29.27c.15.08.27.19.36.33.09.14.14.3.14.46 0 .19-.05.36-.15.5-.1.15-.24.27-.42.35-.18.09-.39.13-.63.13-.27 0-.51-.06-.71-.18Z"/><circle class="uuid-2d34e1d0-09cf-4d4e-983f-643a583a56f1" cx="199.82" cy="44.21" r="3.39"/><path class="uuid-3bf045bb-447f-47af-adae-4e440644325d" d="M197.42 45.24h.9v-2.01l-.81.19v-.58l1.41-.32v2.72h.83v.58h-2.34v-.58ZM199.95 44.65l.9-2.08h.62l-.87 2.01h.82v-.75h.6v.75h.47v.56h-.47v.68h-.6v-.68h-1.47v-.49Z"/><circle class="uuid-2d34e1d0-09cf-4d4e-983f-643a583a56f1" cx="172.65" cy="82.76" r="3.39"/><path class="uuid-3bf045bb-447f-47af-adae-4e440644325d" d="M170.24 83.79h.9v-2.01l-.81.19v-.58l1.41-.32v2.72h.83v.58h-2.34v-.58ZM173.3 84.26c-.2-.12-.36-.28-.47-.5l.5-.31c.15.27.37.41.68.41.19 0 .34-.05.45-.15.11-.1.17-.24.17-.42s-.06-.31-.17-.42-.26-.16-.46-.16c-.23 0-.43.09-.59.26l-.4-.26.32-1.6h1.74v.57h-1.28l-.12.61c.13-.05.27-.08.42-.08.23 0 .44.05.61.14s.3.22.39.39c.09.16.14.35.14.56s-.05.4-.15.57-.24.31-.43.4-.41.15-.66.15-.49-.06-.69-.18Z"/><circle class="uuid-2d34e1d0-09cf-4d4e-983f-643a583a56f1" cx="204.11" cy="141.54" r="3.39"/><path class="uuid-3bf045bb-447f-47af-adae-4e440644325d" d="M201.7 142.57h.9v-2.01l-.81.19v-.58l1.41-.32v2.72h.83v.58h-2.34v-.58ZM204.89 143.06c-.19-.11-.33-.25-.44-.43-.11-.18-.16-.37-.16-.58 0-.26.09-.51.27-.74l1.07-1.41h.73l-.79 1.01h.04c.2 0 .39.05.56.15.17.1.31.24.41.41.1.18.15.37.15.59s-.05.4-.16.58-.25.32-.44.42c-.19.1-.39.15-.62.15s-.43-.05-.62-.16Zm1.06-.59c.11-.12.17-.26.17-.43s-.06-.31-.17-.43c-.12-.12-.26-.18-.44-.18s-.33.06-.45.18-.18.26-.18.43.06.31.17.42.27.17.45.17.33-.06.45-.17Z"/><path class="uuid-4732b129-ab54-4a71-a2f8-9186b659ce0f" transform="rotate(-17.89 82.9509942 19.4043864)" d="M76.86 19.04h12.21v.73H76.86z"/><path class="uuid-2a577272-cd5a-41b6-b632-3c4e8ef3c295" d="M95.37 14.02H85.23l-.03.03v7.93h10.17v-7.96Z"/><path class="uuid-50b41efa-7574-4d59-9329-a54ac3d4f2ba" d="M86.5 19.07h1.17v-2.35H86.5v-.83h3.24v.83h-1.18v2.35h1.18v.83H86.5v-.83ZM90.84 19.76c-.18-.09-.32-.21-.42-.36-.09-.16-.14-.34-.14-.55 0-.3.09-.54.27-.73.18-.19.48-.33.9-.41l1.27-.27c.12-.02.21-.05.28-.08.07-.03.11-.07.14-.12.03-.04.05-.11.05-.18 0-.11-.04-.2-.13-.25s-.22-.08-.41-.08h-.92c-.17 0-.3.04-.39.13-.09.09-.13.21-.13.37v.15h-.89v-.24c0-.26.06-.48.17-.67.11-.18.27-.33.49-.43.21-.1.47-.15.78-.15h.88c.47 0 .83.1 1.08.3s.37.49.37.86c0 .22-.04.41-.11.56-.07.15-.18.27-.33.37-.15.09-.34.16-.58.21l-1.5.3c-.13.03-.23.07-.29.12-.07.05-.1.12-.1.2s.03.15.09.2c.06.04.15.07.27.07h2.53v.83H91.5c-.25 0-.47-.04-.65-.13Z"/><path class="uuid-4732b129-ab54-4a71-a2f8-9186b659ce0f" transform="rotate(-33.15 184.72708133 21.35175686)" d="M178.35 20.98h12.82v.73h-12.82z"/><path class="uuid-2a577272-cd5a-41b6-b632-3c4e8ef3c295" d="M198.13 15h-10.94l-.03.03v8.96h10.97v-9Z"/><path class="uuid-50b41efa-7574-4d59-9329-a54ac3d4f2ba" d="M188.84 20.52h1.17v-2.35h-1.17v-.83h3.24v.83h-1.18v2.35h1.18v.83h-3.24v-.83ZM193.28 21.19c-.21-.1-.38-.25-.49-.43-.11-.19-.17-.41-.17-.67v-.51h.9v.43c0 .16.05.28.14.37.09.09.22.13.38.13h1.03c.15 0 .26-.03.34-.1.08-.06.12-.16.12-.29 0-.12-.04-.21-.12-.28-.08-.06-.19-.09-.34-.09h-1.11v-.83h1.07c.14 0 .26-.03.34-.1.08-.06.12-.16.12-.29 0-.12-.04-.21-.12-.28-.08-.06-.19-.09-.34-.09h-1c-.16 0-.29.04-.38.13-.09.09-.14.21-.14.37v.26h-.89v-.34c0-.26.06-.48.17-.67s.27-.33.49-.43c.21-.1.47-.15.77-.15h1.01c.27 0 .5.04.7.13s.35.21.46.38c.11.17.16.36.16.59 0 .2-.04.38-.14.53-.09.15-.23.27-.42.37.21.1.37.22.46.37.09.14.14.32.14.54s-.05.42-.16.59c-.11.17-.27.29-.47.38-.2.09-.44.13-.71.13h-1.03c-.3 0-.56-.05-.77-.15Z"/><path class="uuid-4732b129-ab54-4a71-a2f8-9186b659ce0f" transform="rotate(-21.76 19.09704803 67.0878119)" d="M13.34 66.73h11.53v.73H13.34z"/><path class="uuid-2a577272-cd5a-41b6-b632-3c4e8ef3c295" d="M16.6 64.73H6.46l-.03.03v8.76H16.6v-8.79Z"/><path class="uuid-50b41efa-7574-4d59-9329-a54ac3d4f2ba" d="M8.13 70.25H9.3V67.9H8.13v-.83h3.24v.83h-1.18v2.35h1.18v.83H8.13v-.83ZM11.99 70.25h1.49v-2.1c0-.07-.02-.13-.05-.17-.03-.04-.08-.06-.16-.06-.04 0-.08 0-.13.02-.05.01-.11.04-.17.06l-.89.29v-.83l.81-.29c.12-.04.23-.08.34-.1s.22-.04.32-.04c.17 0 .31.04.43.11s.22.18.28.32.09.29.09.47v2.33h1.32v.83h-3.7v-.83ZM98.69 151.43l.08-8.76"/><path class="uuid-4732b129-ab54-4a71-a2f8-9186b659ce0f" transform="rotate(-89.49 98.73290693 147.04990466)" d="M94.36 146.69h8.76v.73h-8.76z"/><path class="uuid-2a577272-cd5a-41b6-b632-3c4e8ef3c295" d="M103.66 148.77H92.68l-.03.03v8.7h11.02v-8.74Z"/><path class="uuid-50b41efa-7574-4d59-9329-a54ac3d4f2ba" d="M95.89 151.54c.09-.19.23-.33.42-.42.19-.09.42-.14.71-.14H99v.83h-1.92c-.11 0-.2.01-.26.04s-.11.08-.14.14c-.03.06-.04.15-.04.26v.32h2.26v.83h-2.26v1.58h-.89v-2.73c0-.29.05-.52.14-.71ZM102.54 154.98h-1.67c-.29 0-.53-.05-.71-.14-.19-.09-.33-.23-.42-.42s-.14-.43-.14-.71v-2.73h.89v2.73c0 .11.01.2.04.26.03.07.07.11.14.14.07.03.15.04.26.04h1.61v.83Z"/><path class="uuid-ac8ecd70-1d48-4cee-8a14-ca7cca8bf4c5" d="M93.52 151.68h.88v5.83h-.88z"/><path d="M93.52 152.65h.88v.97h-.88zM93.52 154.59h.88v.97h-.88zM93.52 156.54h.88v.97h-.88z"/><path class="uuid-ac8ecd70-1d48-4cee-8a14-ca7cca8bf4c5" d="M92.64 151.68h.88v5.83h-.88z"/><path d="M92.64 151.68h.88v.97h-.88zM92.64 153.62h.88v.97h-.88zM92.64 155.56h.88v.97h-.88z"/><path class="uuid-ac8ecd70-1d48-4cee-8a14-ca7cca8bf4c5" d="M93.52 148.77h.88v2.91h-.88z"/><path d="M93.52 148.77h.88v.97h-.88zM93.52 150.71h.88v.97h-.88z"/><path class="uuid-ac8ecd70-1d48-4cee-8a14-ca7cca8bf4c5" d="M92.64 148.77h.88v2.91h-.88z"/><path d="M92.64 149.74h.88v.97h-.88z"/><path class="uuid-50b41efa-7574-4d59-9329-a54ac3d4f2ba" transform="rotate(-.56 73.97354657 146.67270082)" d="M73.71 142.4h.73v9.41h-.73z"/><path d="M78.97 148.7h-8.62l-.03.03v7.38h8.65v-7.41Z" style="fill:#f6f6f6"/><path d="M72.68 153.74h2.7c.14 0 .24-.03.32-.09.08-.06.12-.15.12-.27 0-.11-.03-.19-.1-.24-.06-.06-.17-.11-.31-.15l-1.69-.45c-.39-.09-.67-.25-.86-.47-.18-.22-.28-.52-.28-.88 0-.26.06-.5.19-.71.13-.21.31-.37.54-.49.23-.12.51-.18.83-.18h2.58v1.02h-2.58c-.14 0-.26.03-.33.09-.08.06-.12.15-.12.27s.03.2.1.25c.06.06.17.11.31.15l1.68.44c.39.09.68.25.87.48s.28.52.28.88c0 .27-.06.51-.19.71-.12.21-.3.37-.54.49-.23.12-.51.18-.83.18h-2.7v-1.02Z" style="fill:#323232"/></svg>